<svg width="152" height="153" viewBox="0 0 152 153" fill="none" xmlns="http://www.w3.org/2000/svg">
<path d="M113.616 37.0564C112.542 33.4725 109.944 30.4376 106.602 28.749C103.26 27.0604 98.6017 26.47 95.4901 29.0383C94.6104 29.7646 95.868 31.0104 96.7418 30.29C99.2984 28.1822 103.425 29.0206 106.082 30.4731C108.739 31.9255 110.995 34.4998 111.904 37.5228C112.229 38.6092 113.941 38.1486 113.61 37.0504L113.616 37.0564Z" fill="#1E1E1E"/>
<path d="M76 152.196C34.2154 152.196 0.224365 118.205 0.224365 76.4204C0.224365 34.6357 34.2154 0.64473 76 0.64473C117.785 0.64473 151.776 34.6357 151.776 76.4204C151.776 118.205 117.785 152.196 76 152.196Z" fill="#DE7672"/>
<path d="M76 0.875069C96.1809 0.875069 115.151 8.73368 129.422 23.0043C143.693 37.275 151.551 56.2455 151.551 76.4263C151.551 96.6072 143.693 115.578 129.422 129.848C115.151 144.119 96.1809 151.978 76 151.978C55.8191 151.978 36.8487 144.119 22.578 129.848C8.30734 115.578 0.448727 96.6072 0.448727 76.4263C0.448727 56.2455 8.30734 37.275 22.578 23.0043C36.8487 8.73368 55.8191 0.875069 76 0.875069ZM76 0.420441C34.0264 0.420441 0 34.4469 0 76.4204C0 118.394 34.0264 152.42 76 152.42C117.974 152.42 152 118.394 152 76.4204C152 34.4469 117.974 0.420441 76 0.420441Z" fill="#1E1E1E"/>
<path d="M76.0001 145.441C37.947 145.441 6.98486 114.479 6.98486 76.4262C6.98486 38.373 37.947 7.41095 76.0001 7.41095C114.053 7.41095 145.015 38.373 145.015 76.4262C145.015 114.479 114.053 145.441 76.0001 145.441Z" fill="#DE7672"/>
<path d="M76 8.58614C113.463 8.58614 143.834 38.9578 143.834 76.4205C143.834 113.883 113.463 144.255 76 144.255C38.5373 144.255 8.16567 113.883 8.16567 76.4205C8.16567 38.9578 38.5373 8.58614 76 8.58614ZM76 6.22443C57.248 6.22443 39.6237 13.528 26.3627 26.7832C13.1017 40.0442 5.80396 57.6685 5.80396 76.4205C5.80396 95.1725 13.1076 112.797 26.3627 126.058C39.6237 139.319 57.248 146.617 76 146.617C94.7521 146.617 112.376 139.313 125.637 126.058C138.898 112.797 146.196 95.1725 146.196 76.4205C146.196 57.6685 138.893 40.0442 125.637 26.7832C112.376 13.5221 94.7521 6.22443 76 6.22443Z" fill="#1E1E1E"/>
<path d="M121.097 85.6071C112.075 101.856 94.9883 112.047 76.4547 112.212C57.5964 112.377 40.0784 102.145 30.8972 85.6071" fill="#DE7672"/>
<path d="M121.097 85.6071C112.075 101.856 94.9883 112.047 76.4547 112.212C57.5964 112.377 40.0784 102.145 30.8972 85.6071" stroke="#1E1E1E" stroke-width="1.18086" stroke-miterlimit="10"/>
<path d="M102.392 105.021C96.5708 109.916 92.8452 114.55 90.5366 117.845C87.1653 122.651 86.4863 125.054 83.109 126.973C78.9111 129.358 72.9714 129.618 68.7262 127.05C65.3961 125.036 64.9297 122.427 62.0779 117.904C59.7812 114.273 55.9611 109.449 49.3601 104.755" stroke="#1E1E1E" stroke-width="0.61995" stroke-miterlimit="10"/>
<path d="M24.5796 89.1912C29.4447 88.093 33.5128 84.0368 34.6346 79.1776" stroke="#1E1E1E" stroke-width="1.18086" stroke-miterlimit="10"/>
<path d="M127.184 89.1912C122.319 88.093 118.251 84.0368 117.129 79.1776" stroke="#1E1E1E" stroke-width="1.18086" stroke-miterlimit="10"/>
<path d="M49.354 104.761C55.955 109.455 59.7751 114.279 62.0719 117.91C64.9296 122.432 65.3901 125.042 68.7201 127.055C72.9653 129.618 78.905 129.358 83.103 126.979C86.4802 125.06 87.1592 122.663 90.5306 117.851C92.845 114.556 96.5706 109.921 102.386 105.027C98.5191 107.459 89.8102 112.206 77.7773 112.619C63.4771 113.11 53.121 107.188 49.3481 104.767L49.354 104.761Z" fill="#1E1E1E" stroke="#1E1E1E" stroke-width="0.61995" stroke-miterlimit="10"/>
<path d="M54.2074 87.5675C50.3282 87.5675 46.1716 77.973 46.1716 63.6905C46.1716 49.4081 50.3282 39.8136 54.2074 39.8136C58.0865 39.8136 62.2431 49.4081 62.2431 63.6905C62.2431 77.973 58.0865 87.5675 54.2074 87.5675Z" fill="#DE7672"/>
<path d="M54.2075 40.4041C57.7264 40.4041 61.6528 49.9691 61.6528 63.6906C61.6528 77.4122 57.7323 86.9771 54.2075 86.9771C50.6826 86.9771 46.7622 77.4122 46.7622 63.6906C46.7622 49.9691 50.6826 40.4041 54.2075 40.4041ZM54.2075 39.2233C49.4427 39.2233 45.5813 50.1757 45.5813 63.6906C45.5813 77.2055 49.4427 88.158 54.2075 88.158C58.9722 88.158 62.8336 77.2055 62.8336 63.6906C62.8336 50.1757 58.9722 39.2233 54.2075 39.2233Z" fill="#1E1E1E"/>
<path d="M52.0997 90.2658C58.0279 90.2658 62.8337 78.3888 62.8337 63.7378C62.8337 49.0868 58.0279 37.2099 52.0997 37.2099C46.1715 37.2099 41.3657 49.0868 41.3657 63.7378C41.3657 78.3888 46.1715 90.2658 52.0997 90.2658Z" stroke="#DE7672" stroke-width="1.18086" stroke-miterlimit="10"/>
<path d="M54.414 87.2724C50.6529 87.2724 46.4668 77.5893 46.4668 63.6906C46.4668 49.7919 50.6588 40.1089 54.414 40.1089C58.1691 40.1089 62.3611 49.7919 62.3611 63.6906C62.3611 77.5893 58.1691 87.2724 54.414 87.2724Z" fill="#1E1E1E"/>
<path d="M54.4141 40.9945C57.2954 40.9945 61.4756 49.8333 61.4756 63.6906C61.4756 77.548 57.2895 86.3867 54.4141 86.3867C51.5387 86.3867 47.3526 77.548 47.3526 63.6906C47.3526 49.8333 51.5387 40.9945 54.4141 40.9945ZM54.4141 39.2233C49.5372 39.2233 45.5813 50.1757 45.5813 63.6906C45.5813 77.2055 49.5372 88.158 54.4141 88.158C59.2911 88.158 63.2469 77.2055 63.2469 63.6906C63.2469 50.1757 59.2911 39.2233 54.4141 39.2233Z" fill="#DE7672"/>
<path d="M59.0903 83.8479C61.086 79.9451 62.4735 73.7102 62.7687 66.5306C62.4735 73.4386 61.1096 79.5495 59.0903 83.8479Z" fill="#1E1E1E"/>
<path d="M62.7687 66.5364C62.4735 73.4444 61.1096 79.5554 59.0903 83.8537C61.086 79.951 62.4735 73.716 62.7687 66.5364Z" fill="#1E1E1E"/>
<path d="M62.8039 65.4265C62.798 65.7571 62.7862 66.0818 62.7744 66.4066C62.7862 66.0818 62.798 65.7512 62.8039 65.4265Z" fill="#1E1E1E"/>
<path d="M62.8041 65.6331C62.7982 65.8929 62.7864 66.1527 62.7805 66.4066C62.7923 66.1468 62.7982 65.8929 62.8041 65.6331Z" fill="#1E1E1E"/>
<path d="M62.828 64.0392C62.828 64.3698 62.828 64.7004 62.8162 65.0252C62.8221 64.7004 62.8221 64.3698 62.828 64.0392Z" fill="#1E1E1E"/>
<path d="M62.828 64.0392C62.828 64.3698 62.828 64.7004 62.8162 65.0252C62.8221 64.7004 62.8221 64.3698 62.828 64.0392Z" fill="#1E1E1E"/>
<path d="M62.8277 63.6907C62.8277 54.7575 61.1391 46.9461 58.6179 42.6714C61.1745 47.5188 62.8218 55.1354 62.8277 63.7143C62.8277 63.7084 62.8277 63.6966 62.8277 63.6907Z" fill="#1E1E1E"/>
<path d="M58.6238 42.6772C61.1803 47.5246 62.8276 55.1411 62.8335 63.72C62.8335 63.7141 62.8335 63.7023 62.8335 63.6964C62.8335 54.7632 61.1449 46.9519 58.6238 42.6772Z" fill="#1E1E1E"/>
<path d="M62.816 65.0252C62.816 65.161 62.8101 65.2909 62.8042 65.4267C62.8042 65.2909 62.8101 65.161 62.816 65.0252Z" fill="#1E1E1E"/>
<path d="M62.8157 65.0252C62.8157 65.1138 62.8157 65.2023 62.8098 65.285C62.8098 65.1964 62.8098 65.1079 62.8157 65.0252Z" fill="#1E1E1E"/>
<path d="M52.0998 89.0848C47.4885 89.0848 42.5466 78.8999 42.5466 63.7377C42.5466 48.5755 47.4885 38.3906 52.0998 38.3906C52.212 38.3906 52.3241 38.3965 52.4363 38.4083C47.2051 40.6047 44.4006 52.4665 44.4006 63.6964C44.4006 74.9264 47.2642 87.042 52.6075 89.0494C52.4363 89.073 52.271 89.0908 52.0998 89.0908V89.0848Z" fill="#1E1E1E"/>
<path d="M52.0997 37.21C46.1718 37.21 41.3657 49.0894 41.3657 63.738C41.3657 78.3865 46.1718 90.2659 52.0997 90.2659C54.7744 90.2659 57.2128 87.8452 59.0963 83.848C57.7088 86.5639 56.0261 88.1581 54.2075 88.1581C49.4428 88.1581 45.5814 77.2057 45.5814 63.6907C45.5814 50.1758 49.4428 39.2234 54.2075 39.2234C55.8194 39.2234 57.3309 40.4869 58.624 42.6715C56.8172 39.247 54.5559 37.2041 52.0997 37.2041V37.21Z" fill="#1E1E1E"/>
<path d="M101.589 87.5675C97.7101 87.5675 93.5535 77.973 93.5535 63.6905C93.5535 49.4081 97.7101 39.8136 101.589 39.8136C105.468 39.8136 109.625 49.4081 109.625 63.6905C109.625 77.973 105.468 87.5675 101.589 87.5675Z" fill="#DE7672"/>
<path d="M101.589 40.4041C105.108 40.4041 109.035 49.9691 109.035 63.6906C109.035 77.4122 105.114 86.9771 101.589 86.9771C98.0644 86.9771 94.144 77.4122 94.144 63.6906C94.144 49.9691 98.0644 40.4041 101.589 40.4041ZM101.589 39.2233C96.8245 39.2233 92.9631 50.1757 92.9631 63.6906C92.9631 77.2055 96.8245 88.158 101.589 88.158C106.354 88.158 110.215 77.2055 110.215 63.6906C110.215 50.1757 106.354 39.2233 101.589 39.2233Z" fill="#1E1E1E"/>
<path d="M99.4815 90.2658C105.41 90.2658 110.216 78.3888 110.216 63.7378C110.216 49.0868 105.41 37.2099 99.4815 37.2099C93.5533 37.2099 88.7476 49.0868 88.7476 63.7378C88.7476 78.3888 93.5533 90.2658 99.4815 90.2658Z" stroke="#DE7672" stroke-width="1.18086" stroke-miterlimit="10"/>
<path d="M101.796 87.2724C98.035 87.2724 93.8489 77.5893 93.8489 63.6906C93.8489 49.7919 98.0409 40.1089 101.796 40.1089C105.551 40.1089 109.743 49.7919 109.743 63.6906C109.743 77.5893 105.551 87.2724 101.796 87.2724Z" fill="#1E1E1E"/>
<path d="M101.796 40.9945C104.677 40.9945 108.857 49.8333 108.857 63.6906C108.857 77.548 104.671 86.3867 101.796 86.3867C98.9206 86.3867 94.7344 77.548 94.7344 63.6906C94.7344 49.8333 98.9206 40.9945 101.796 40.9945ZM101.796 39.2233C96.919 39.2233 92.9631 50.1757 92.9631 63.6906C92.9631 77.2055 96.919 88.158 101.796 88.158C106.673 88.158 110.629 77.2055 110.629 63.6906C110.629 50.1757 106.673 39.2233 101.796 39.2233Z" fill="#DE7672"/>
<path d="M106.472 83.8479C108.468 79.9451 109.855 73.7102 110.151 66.5306C109.855 73.4386 108.491 79.5495 106.472 83.8479Z" fill="#1E1E1E"/>
<path d="M110.151 66.5364C109.855 73.4444 108.491 79.5554 106.472 83.8537C108.468 79.951 109.855 73.716 110.151 66.5364Z" fill="#1E1E1E"/>
<path d="M110.186 65.4265C110.18 65.7571 110.168 66.0818 110.156 66.4066C110.168 66.0818 110.18 65.7512 110.186 65.4265Z" fill="#1E1E1E"/>
<path d="M110.186 65.4265C110.186 65.5386 110.18 65.6508 110.174 65.763C110.174 65.6508 110.18 65.5386 110.186 65.4265ZM110.18 65.7689C110.174 65.9815 110.168 66.1999 110.156 66.4125C110.162 66.1999 110.174 65.9874 110.18 65.7689Z" fill="#1E1E1E"/>
<path d="M110.21 64.0392C110.21 64.3698 110.21 64.7004 110.198 65.0252C110.204 64.7004 110.204 64.3698 110.21 64.0392Z" fill="#1E1E1E"/>
<path d="M110.21 64.0392C110.21 64.3698 110.21 64.7004 110.198 65.0252C110.204 64.7004 110.204 64.3698 110.21 64.0392Z" fill="#1E1E1E"/>
<path d="M110.21 63.6907C110.21 54.7575 108.521 46.9461 106 42.6714C108.556 47.5188 110.204 55.1354 110.21 63.7143C110.21 63.7084 110.21 63.6966 110.21 63.6907Z" fill="#1E1E1E"/>
<path d="M106 42.6772C108.557 47.5246 110.204 55.1411 110.21 63.72C110.21 63.7141 110.21 63.7023 110.21 63.6964C110.21 54.7632 108.521 46.9519 106 42.6772Z" fill="#1E1E1E"/>
<path d="M110.198 65.0252C110.198 65.161 110.192 65.2909 110.186 65.4267C110.186 65.2909 110.192 65.161 110.198 65.0252Z" fill="#1E1E1E"/>
<path d="M110.198 65.0252C110.198 65.1138 110.198 65.2023 110.192 65.2968C110.192 65.2082 110.192 65.1197 110.198 65.0252Z" fill="#1E1E1E"/>
<path d="M99.4816 89.0848C94.8704 89.0848 89.9285 78.8999 89.9285 63.7377C89.9285 48.5755 94.8704 38.3906 99.4816 38.3906C99.5938 38.3906 99.706 38.3965 99.8181 38.4083C94.5869 40.6047 91.7824 52.4665 91.7824 63.6964C91.7824 74.9264 94.646 87.042 99.9894 89.0494C99.8182 89.073 99.6528 89.0908 99.4816 89.0908V89.0848Z" fill="#1E1E1E"/>
<path d="M99.4816 37.21C93.5536 37.21 88.7476 49.0894 88.7476 63.738C88.7476 78.3865 93.5536 90.2659 99.4816 90.2659C102.156 90.2659 104.595 87.8452 106.478 83.848C105.091 86.5639 103.408 88.1581 101.589 88.1581C96.8246 88.1581 92.9632 77.2057 92.9632 63.6907C92.9632 50.1758 96.8246 39.2234 101.589 39.2234C103.201 39.2234 104.713 40.4869 106.006 42.6715C104.199 39.247 101.938 37.2041 99.4816 37.2041V37.21Z" fill="#1E1E1E"/>
<path d="M71.678 95.6326C72.7644 97.0851 74.5003 97.8113 76.3011 97.522C78.1019 97.2327 79.4363 95.7979 79.8555 94.1152C80.0798 93.2001 80.0208 92.2613 79.6902 91.3815C79.33 90.425 78.7986 89.5571 78.5211 88.5652C78.2436 87.5733 78.1432 86.54 78.2141 85.5068C78.2495 84.9872 78.2672 84.5089 77.8953 84.0897C77.5528 83.706 77.0214 83.6292 76.5845 83.9008C75.6162 84.4971 76.5077 86.0323 77.4761 85.43L77.5587 85.3769L76.8738 85.4654C76.6022 85.0049 76.4664 84.9163 76.4664 85.1879C76.4546 85.2942 76.4487 85.3946 76.4369 85.5009C76.4251 85.7075 76.4133 85.9142 76.4133 86.1267C76.4133 86.5105 76.431 86.8884 76.4782 87.2663C76.5668 88.0338 76.7144 88.7955 76.9624 89.5276C77.3816 90.7734 78.403 92.0251 78.1964 93.4008C78.0252 94.5049 77.2281 95.4791 76.1358 95.7507C75.1025 96.0105 73.8508 95.5972 73.2073 94.7352C72.9179 94.3514 72.4456 94.1625 71.9969 94.4163C71.619 94.6348 71.3946 95.2429 71.678 95.6267V95.6326Z" fill="#1E1E1E"/>
<path d="M73.3255 94.5821C72.7292 93.3776 72.6229 92.0019 73.0244 90.7207C73.4259 89.4395 74.1049 88.3117 74.2761 86.9301C74.6245 84.0429 74.6481 81.0908 74.8193 78.1918C74.8843 77.0523 73.113 77.0582 73.048 78.1918C72.9595 79.7151 72.8709 81.2384 72.7823 82.7617C72.6938 84.285 72.7705 85.9737 72.3985 87.4674C72.0561 88.8431 71.2472 90.0122 71.0701 91.4469C70.8929 92.8817 71.1764 94.2219 71.7963 95.4795C72.2982 96.501 73.8274 95.6035 73.3255 94.588V94.5821Z" fill="#1E1E1E"/>
<path d="M72.9951 88.9964C71.2947 91.2342 71.8674 95.0778 74.5834 96.2587C76.0889 96.9141 77.6654 96.176 78.4566 94.8003C79.2477 93.4246 79.1651 91.7596 78.8581 90.2481C78.492 88.4473 77.6477 86.5934 78.2617 84.7571C78.6219 83.6708 76.9155 83.2102 76.5554 84.2848C75.9768 86.0266 76.4137 87.8215 76.8683 89.5396C77.2285 90.9035 77.6831 92.5921 76.9333 93.9088C76.6617 94.387 76.1893 94.8299 75.5989 94.7354C74.9376 94.635 74.4239 94.0269 74.1405 93.466C73.5501 92.2969 73.7627 90.9094 74.5361 89.888C74.8254 89.5042 74.5952 88.8961 74.2173 88.6776C73.7627 88.4119 73.2962 88.6127 73.0069 88.9964H72.9951Z" fill="#1E1E1E"/>
<path d="M74.0694 90.0359C74.8193 89.0557 75.0082 87.7922 75.0614 86.5937C75.1263 85.2475 75.1145 83.8954 75.144 82.5433C75.1617 81.4038 73.3905 81.4038 73.3727 82.5433C73.3491 83.8186 73.3432 85.094 73.3019 86.3634C73.2665 87.3612 73.1661 88.3236 72.5461 89.1325C72.2568 89.5104 72.4871 90.1244 72.865 90.3429C73.3196 90.6086 73.786 90.4078 74.0753 90.0241L74.0694 90.0359Z" fill="#1E1E1E"/>
<path d="M73.0123 90.4665C72.8411 91.7595 73.1068 93.088 73.709 94.2452C73.9865 94.7707 74.3407 95.308 74.8603 95.6209C75.4626 95.9811 76.2183 95.9102 76.8087 95.5796C78.0368 94.8947 78.1608 93.3832 78.214 92.1315C78.273 90.7145 78.149 89.3033 77.8892 87.9099C77.8007 87.4376 77.2339 87.1719 76.7969 87.29C76.301 87.4258 76.0884 87.9099 76.177 88.3823C76.3659 89.4096 76.4545 90.4429 76.4486 91.4879C76.4486 92.0075 76.4368 92.5389 76.3659 93.0585C76.3482 93.2179 76.301 93.4599 76.2301 93.6489C76.2537 93.5957 76.1238 93.8614 76.1357 93.8378C76.0648 93.9677 76.1357 93.8732 76.0294 93.9677C75.9526 94.0386 75.8641 94.1035 75.7696 94.1035C75.9408 94.1035 75.6279 94.0858 75.7932 94.1094C75.7105 94.0976 75.7224 94.1212 75.6633 94.0445C75.7519 94.1507 75.5157 93.8555 75.5688 93.9205C75.5511 93.9028 75.4685 93.767 75.4271 93.702C75.2972 93.4954 75.1733 93.271 75.0788 93.0466C74.7304 92.22 74.6596 91.358 74.7718 90.4724C74.8367 90 74.3171 89.5867 73.8861 89.5867C73.3547 89.5867 73.0654 89.9941 73.0005 90.4724L73.0123 90.4665Z" fill="#1E1E1E"/>
<path d="M72.8295 91.0686C73.1778 91.8834 73.6266 92.6333 74.1757 93.3241C74.4473 93.6665 74.7956 93.9558 75.2325 94.0444C75.7934 94.1566 76.3425 93.9618 76.7617 93.5898C77.4348 92.9994 77.5824 91.9838 77.6946 91.1454C77.8245 90.2243 77.854 89.3033 77.7537 88.3763C77.7064 87.9158 77.3817 87.467 76.868 87.4906C76.4311 87.5084 75.9292 87.8803 75.9824 88.3763C76.0591 89.0966 76.0709 89.8229 76.0001 90.5491C75.9942 90.6376 75.9824 90.7321 75.9706 90.8207C75.9883 90.6672 75.9528 90.921 75.9528 90.9447C75.9292 91.11 75.8938 91.2694 75.8643 91.4347C75.8348 91.6 75.7934 91.7654 75.7462 91.9307C75.7403 91.9602 75.6635 92.1787 75.699 92.0901C75.7344 92.0015 75.6281 92.2082 75.6163 92.2318C75.5809 92.2849 75.5868 92.279 75.6399 92.2141L75.5927 92.2672C75.5218 92.3322 75.5277 92.3322 75.6104 92.2672L75.5514 92.3027C75.386 92.3912 75.6753 92.3027 75.5041 92.3204C75.7285 92.2908 75.4274 92.3027 75.6399 92.3204C75.5573 92.2968 75.5514 92.2968 75.6163 92.3204C75.6813 92.344 75.6753 92.3381 75.5986 92.2967C75.6753 92.3558 75.6872 92.3617 75.6399 92.3204C75.6163 92.2968 75.5868 92.2672 75.5632 92.2436C75.5514 92.2259 75.4096 92.0429 75.5159 92.1846C75.4628 92.1137 75.4156 92.0488 75.3624 91.9779C74.9609 91.417 74.6303 90.8089 74.3587 90.1771C74.1757 89.752 73.5144 89.6221 73.1483 89.8583C72.7055 90.1476 72.6346 90.614 72.8295 91.0686Z" fill="#1E1E1E"/>
<path d="M39.0984 38.4971C38.8622 38.3672 39.736 35.167 42.2217 32.2562C42.9244 31.4355 45.2447 28.8908 49.0058 27.828C52.0347 26.9719 53.5285 27.7749 53.8414 27.9638C54.1307 28.135 54.7152 28.4893 54.9691 29.1978C55.158 29.7292 55.1994 30.5499 54.7566 31.0104C54.2606 31.5241 53.4812 31.2702 52.0111 31.223C52.0111 31.223 50.8833 31.1876 48.6574 31.5005C48.6574 31.5005 46.2131 31.8429 43.9989 33.1301C40.4977 35.1611 39.3523 38.6388 39.1043 38.503L39.0984 38.4971Z" fill="#1E1E1E"/>
<path d="M39.571 38.0305C40.1614 38.5973 39.6123 38.4497 39.7304 38.2667C39.6832 38.3375 39.7658 38.1132 39.7658 38.1073C39.819 37.8593 39.8957 37.6172 39.9784 37.3751C40.2264 36.6489 40.5629 35.9522 40.9349 35.2791C41.6198 34.051 42.4523 32.9056 43.4501 31.9078C45.6229 29.735 48.8879 27.8515 52.0585 28.129C52.8261 28.194 53.7649 28.4538 54.2136 29.1505C54.5206 29.6287 54.6446 30.5852 53.9125 30.662C53.263 30.7269 52.584 30.5675 51.9346 30.5557C49.437 30.5262 46.8569 31.0162 44.5837 32.0731C42.8833 32.8643 41.4426 34.0687 40.2972 35.5448C39.8957 36.0644 39.5296 36.6076 39.1872 37.1744C39.0632 37.381 38.9451 37.5877 38.827 37.7943C38.5613 38.2608 38.7503 37.7294 39.2758 37.8534C38.4433 37.6526 38.089 38.9339 38.9215 39.1346C39.7953 39.3472 40.2913 37.8888 40.6515 37.3338C41.6434 35.7869 42.9423 34.4584 44.5601 33.5669C47.341 32.0436 50.3994 31.8428 53.4874 31.9786C54.1959 32.0081 54.8867 31.9196 55.3472 31.3291C55.8845 30.6442 55.8668 29.6346 55.548 28.8612C55.0993 27.7866 53.9952 27.143 52.8911 26.9127C49.3072 26.1747 45.4044 28.2412 42.8597 30.6265C41.5017 31.896 40.374 33.437 39.5296 35.0902C39.1341 35.8695 38.768 36.6902 38.5377 37.5346C38.4196 37.9715 38.2484 38.6032 38.6263 38.9634C39.2462 39.5538 40.185 38.615 39.5651 38.0246L39.571 38.0305Z" fill="#1E1E1E"/>
<path d="M111.603 38.4971C111.839 38.3672 110.965 35.167 108.479 32.2562C107.777 31.4355 105.456 28.8908 101.695 27.828C98.6664 26.9719 97.1727 27.7749 96.8597 27.9638C96.5704 28.135 95.9859 28.4893 95.732 29.1978C95.5431 29.7292 95.5017 30.5499 95.9446 31.0104C96.4405 31.5241 97.2199 31.2702 98.6901 31.223C98.6901 31.223 99.8178 31.1876 102.044 31.5005C102.044 31.5005 104.488 31.8429 106.702 33.1301C110.203 35.1611 111.349 38.6388 111.597 38.503L111.603 38.4971Z" fill="#1E1E1E"/>
<path d="M112.075 38.9693C112.79 38.2844 111.821 36.4895 111.526 35.8282C110.788 34.1809 109.767 32.6399 108.533 31.3173C106.136 28.7549 102.505 26.6411 98.9029 26.7888C97.8401 26.8301 96.7714 27.1076 95.9448 27.8043C94.7994 28.7726 94.3448 31.3114 96.1397 31.8901C96.9486 32.1498 97.8696 31.9078 98.6962 31.8901C99.1095 31.8842 99.5287 31.9078 99.942 31.9373C101.471 32.0495 102.93 32.2797 104.376 32.7934C106.561 33.561 108.385 34.9367 109.714 36.8319C110.086 37.3633 110.399 37.9183 110.729 38.4733C110.965 38.863 111.255 39.2704 111.78 39.1464C112.613 38.9457 112.258 37.6645 111.426 37.8652C111.497 37.8475 112.01 37.9242 112.016 38.0364C112.016 38.001 111.934 37.9065 111.91 37.8711C111.816 37.7117 111.721 37.5464 111.627 37.387C111.343 36.9028 111.042 36.4186 110.711 35.964C109.814 34.7241 108.728 33.6377 107.44 32.8052C105.002 31.2347 102.062 30.6679 99.204 30.5734C98.8557 30.5616 98.5191 30.5734 98.1708 30.5911C97.6866 30.6206 96.553 30.9513 96.305 30.349C95.8681 29.2745 97.0785 28.4833 97.9228 28.2648C99.4756 27.8574 101.217 28.3002 102.67 28.8671C104.122 29.4339 105.463 30.29 106.62 31.3232C107.718 32.2975 108.645 33.437 109.413 34.6887C109.879 35.4503 110.298 36.2533 110.611 37.0917C110.723 37.3929 110.824 37.6999 110.906 38.0128C110.924 38.0778 110.93 38.249 110.971 38.3021C110.971 38.2549 110.971 38.2667 110.971 38.3375C110.971 38.5206 111.018 38.4202 111.131 38.0364C110.511 38.6268 111.45 39.5656 112.069 38.9752L112.075 38.9693Z" fill="#1E1E1E"/>
</svg>
