<svg width="133" height="152" viewBox="0 0 133 152" fill="none" xmlns="http://www.w3.org/2000/svg">
<path d="M26.5212 112.189C28.2898 118.235 33.385 121.501 37.1488 120.635C41.6006 119.611 43.268 113.014 42.5962 108.648C41.204 99.5781 28.8078 94.1509 26.2501 96.3849C25.3233 97.1943 25.2262 99.4121 27.6139 104.831" fill="#1E1E1E"/>
<path d="M26.5212 112.189C28.2898 118.235 33.385 121.501 37.1488 120.635C41.6006 119.611 43.268 113.014 42.5962 108.648C41.204 99.5781 28.8078 94.1509 26.2501 96.3849C25.3233 97.1943 25.2262 99.4121 27.6139 104.831" stroke="#1E1E1E" stroke-width="0.259012" stroke-miterlimit="10"/>
<path d="M82.4553 151.283C81.7066 151.283 80.8972 151.263 80.0514 151.222C77.3722 151.097 74.8388 150.976 72.2244 150.348C68.922 149.559 63.9764 147.459 54.9515 138.175L54.3485 137.555C48.379 131.42 45.0928 128.041 42.0818 122.423C38.0226 114.847 37.116 108.396 35.8615 99.4644C34.9671 93.0903 33.6032 81.1636 34.5381 72.8712C35.7805 61.8308 42.2113 48.5442 51.3213 38.1878C61.613 26.4918 73.6085 20.0488 85.094 20.0488C87.0407 20.0488 88.9914 20.235 90.8894 20.6073C102.165 22.8089 112.756 31.8056 119.943 45.2863C126.322 57.2495 128.685 70.5724 125.694 77.6912C125.577 77.9664 125.427 78.2983 125.249 78.6868C124.047 81.3133 121.55 86.785 121.939 93.7743C122.084 96.4008 122.55 97.8294 123.003 99.2135C123.456 100.61 123.885 101.929 123.905 104.208C123.95 109.954 120.409 115.017 113.978 124.2C109.016 131.291 105.143 135.58 100.242 141.016C95.2603 146.536 93.5403 148.219 91.8729 149.215C91.6179 149.369 91.2699 149.551 90.8409 149.753C89.1735 150.547 87.0042 151.283 82.4553 151.283Z" fill="#DE7672"/>
<path d="M85.0941 20.7007C86.976 20.7007 88.87 20.8788 90.7641 21.2471C116.184 26.2128 130.854 63.7494 125.095 77.4406C124.165 79.6584 120.838 85.6683 121.291 93.8069C121.591 99.1774 123.222 99.8128 123.254 104.208C123.294 109.639 120.012 114.443 113.444 123.824C108.506 130.882 104.698 135.103 99.7526 140.579C94.9204 145.933 93.1721 147.677 91.533 148.653C91.3104 148.786 90.9907 148.952 90.5536 149.163C88.8255 149.988 86.6603 150.628 82.4473 150.628C81.7189 150.628 80.9337 150.608 80.0758 150.567C77.3885 150.442 74.9279 150.324 72.3701 149.709C69.7274 149.078 64.8224 147.394 55.4089 137.714C48.9983 131.121 45.7121 127.827 42.6485 122.108C38.7228 114.783 37.7839 108.506 36.501 99.3676C36.1206 96.6642 34.1173 82.3861 35.1776 72.9362C37.6382 51.0577 60.4111 20.6886 85.0901 20.6886M85.0941 19.4056C73.4183 19.4056 61.2488 25.9255 50.8357 37.7631C41.6448 48.2127 35.1533 61.6368 33.8947 72.8027C32.9558 81.1639 34.3237 93.1553 35.2221 99.5578C36.4362 108.214 37.3994 115.054 41.5113 122.731C44.5668 128.434 47.8773 131.837 53.8872 138.013L54.4862 138.628C63.6285 148.034 68.6873 150.17 72.0747 150.98C74.7498 151.619 77.3116 151.741 80.0191 151.87C80.8771 151.911 81.6946 151.931 82.4514 151.931C87.146 151.931 89.465 151.126 91.1162 150.336C91.5654 150.122 91.9215 149.936 92.2008 149.77C93.9572 148.722 95.6286 147.091 100.716 141.453C105.637 136.002 109.522 131.696 114.508 124.573C121.012 115.277 124.594 110.157 124.549 104.204C124.533 101.824 124.067 100.396 123.614 99.0155C123.177 97.6719 122.724 96.2837 122.582 93.7422C122.202 86.9148 124.654 81.5443 125.832 78.9623C126.01 78.5738 126.164 78.2379 126.285 77.9505C127.815 74.3082 128.054 69.1886 126.965 63.1342C125.897 57.185 123.667 50.9121 120.506 44.9912C117.179 38.7547 112.966 33.2466 108.324 29.0619C102.97 24.2378 97.1423 21.1823 91.0069 19.9844C89.0683 19.6039 87.0772 19.4137 85.0901 19.4137L85.0941 19.4056Z" fill="#1E1E1E"/>
<path d="M100.594 85.2191C100.08 88.7805 100.728 91.3787 101.768 95.5391C102.885 100.019 104.091 101.335 104.609 101.954C106.119 103.771 108.486 105.017 110.817 104.649C112.396 104.402 113.784 103.463 114.99 102.411C118.871 99.0317 121.453 94.2036 122.113 89.1002C122.768 83.9969 121.493 78.6709 118.6 74.4175C117.507 72.8148 115.714 70.5889 113.051 70.338C110.024 70.0547 107.636 72.5761 105.795 74.5146C101.606 78.934 100.76 84.094 100.598 85.211L100.594 85.2191Z" fill="#1E1E1E" stroke="#DE7672" stroke-width="0.259012" stroke-miterlimit="10"/>
<path d="M111.255 70.5001C112.566 71.9247 114.367 74.1749 115.836 77.283C117.05 79.8569 119.648 85.3772 118.106 91.9901C116.305 99.7038 110.085 103.682 108.648 104.552" fill="#1E1E1E"/>
<path d="M111.255 70.5001C112.566 71.9247 114.367 74.1749 115.836 77.283C117.05 79.8569 119.648 85.3772 118.106 91.9901C116.305 99.7038 110.085 103.682 108.648 104.552" stroke="#DE7672" stroke-width="1.29506" stroke-miterlimit="10"/>
<path d="M65.7816 65.4816C68.7157 64.6398 71.6822 64.2351 74.7377 64.3241C76.0894 64.3646 77.4331 64.4779 78.7646 64.7207C80.4643 65.0323 82.0912 65.6596 83.8396 65.433C87.0287 65.0202 88.5139 61.1472 85.5272 59.2046C82.5405 57.262 77.7811 57.8529 74.3371 58.3345C70.893 58.8161 67.3559 59.9128 64.098 61.4912C61.8478 62.5798 63.4343 66.1615 65.7816 65.4856V65.4816Z" fill="#1E1E1E"/>
<path d="M123.161 64.016C118.163 61.6768 111.635 59.8516 106.187 61.4664C104.787 61.8832 103.504 63.3118 103.605 64.8538C103.65 65.5418 103.792 66.0112 104.087 66.6264C104.795 68.1238 106.604 68.4881 108.057 68.2412C110.579 67.8162 112.954 66.9502 115.536 66.7964C117.645 66.6709 119.737 66.8166 121.813 67.2092C123.618 67.5491 125.079 64.9104 123.161 64.012V64.016Z" fill="#1E1E1E"/>
<path d="M61.5403 92.7064C62.204 96.5957 63.4505 98.6718 64.0697 99.5905C66.8743 103.759 71.322 105.273 76.0531 103.031C79.0236 101.622 81.3143 99.0765 83.1354 96.3407C84.2848 94.6126 85.2925 92.759 85.8065 90.7476C86.4986 88.0361 86.2557 85.1708 85.7013 82.4309C84.6936 77.4449 82.4272 68.3593 76.0773 68.0922C69.6951 67.821 65.1665 73.1065 62.9203 78.4243C60.2533 84.7337 61.1356 90.3551 61.5403 92.7105V92.7064Z" fill="#1E1E1E" stroke="#DE7672" stroke-width="0.259012" stroke-miterlimit="10"/>
<path d="M69.1572 103.65C71.2496 102.606 76.3853 99.6675 79.0442 93.6333C81.1042 88.9589 80.6671 84.7176 80.311 81.2614C79.6998 75.3324 77.6156 70.8038 76.0818 68.0882" fill="#1E1E1E"/>
<path d="M69.1572 103.65C71.2496 102.606 76.3853 99.6675 79.0442 93.6333C81.1042 88.9589 80.6671 84.7176 80.311 81.2614C79.6998 75.3324 77.6156 70.8038 76.0818 68.0882" stroke="#DE7672" stroke-width="1.29506" stroke-miterlimit="10"/>
<path d="M20.6366 73.5026C33.6843 82.7502 67.4895 59.4633 75.5634 49.3902C78.2506 46.0352 81.4357 42.8259 87.8138 36.4072C91.8933 32.2994 92.6906 31.7005 93.9573 31.4091C102.509 29.4301 112.938 45.9421 115.208 49.3902C124.294 63.1907 124.452 73.9073 126.221 73.6807C129.045 73.3205 133.08 45.4484 120.113 28.5478C117.366 24.9661 111.983 19.4379 105.653 14.4923C105.265 14.1888 99.8498 9.70466 95.4385 7.55162C71.4272 -4.17678 44.753 10.7043 42.0739 12.2503C36.8977 15.241 28.5 20.0854 22.4294 30.1828C13.7404 44.6389 11.5064 67.0395 20.6325 73.5067L20.6366 73.5026Z" fill="#1E1E1E" stroke="#1E1E1E" stroke-width="0.259012" stroke-miterlimit="10"/>
<path opacity="0.76" d="M54.5835 83.3089C54.8182 90.5369 60.0673 100.274 69.5698 101.29C79.2747 102.326 85.6893 93.4427 87.8261 87.9387C88.5789 85.9961 90.655 80.654 88.0973 76.2224C85.3655 71.4833 79.1087 70.856 73.977 70.3421C69.0315 69.8483 61.5323 69.0956 57.3072 74.0411C54.3892 77.4528 54.5349 81.8276 54.5835 83.3048V83.3089Z" fill="#DE7672" stroke="#DE7672" stroke-width="0.259012" stroke-miterlimit="10"/>
<path opacity="0.76" d="M99.5499 86.4858C99.7685 93.1715 104.621 102.176 113.411 103.119C122.388 104.078 128.316 95.8628 130.296 90.7716C130.992 88.9747 132.914 84.0333 130.546 79.9376C128.017 75.5546 122.23 74.9759 117.487 74.5024C112.913 74.0451 105.977 73.349 102.071 77.9222C99.3759 81.0789 99.5054 85.1219 99.5499 86.4898V86.4858Z" fill="#DE7672" stroke="#DE7672" stroke-width="2.0721" stroke-miterlimit="10"/>
<path d="M94.7708 29.7702C93.0751 34.7319 90.06 41.276 84.5519 47.549C69.5414 64.6438 48.0029 66.0319 42.8712 66.2221C41.2281 66.0238 40.4065 65.8579 40.4146 65.7324C40.4268 65.4856 43.5875 65.3803 49.8928 65.4168" fill="#1E1E1E"/>
<path d="M94.7708 29.7702C93.0751 34.7319 90.06 41.276 84.5519 47.549C69.5414 64.6438 48.0029 66.0319 42.8712 66.2221C41.2281 66.0238 40.4065 65.8579 40.4146 65.7324C40.4268 65.4856 43.5875 65.3803 49.8928 65.4168" stroke="#DE7672" stroke-width="0.259012" stroke-linecap="round" stroke-linejoin="round"/>
<path d="M70.8647 4.25724C68.8533 3.86063 66.0487 3.44783 62.6896 3.40736C50.2246 3.25762 39.8034 9.12991 39.8034 9.12991C29.5239 14.9334 30.1512 20.5062 19.9809 25.0673C15.3834 27.1272 11.1785 27.8193 8.34961 28.0823C9.67705 29.2398 11.7289 30.7332 14.5295 31.8097C19.3374 33.6551 23.6232 33.2181 25.6913 32.8619" fill="#1E1E1E"/>
<path d="M70.8647 4.25724C68.8533 3.86063 66.0487 3.44783 62.6896 3.40736C50.2246 3.25762 39.8034 9.12991 39.8034 9.12991C29.5239 14.9334 30.1512 20.5062 19.9809 25.0673C15.3834 27.1272 11.1785 27.8193 8.34961 28.0823C9.67705 29.2398 11.7289 30.7332 14.5295 31.8097C19.3374 33.6551 23.6232 33.2181 25.6913 32.8619" stroke="#DE7672" stroke-width="2.59012" stroke-linecap="round" stroke-linejoin="round"/>
<path d="M34.2873 24.4558C31.94 27.313 29.621 29.5875 27.6217 31.3439C25.9827 32.7806 23.1133 35.1401 19.1674 37.5359C17.0913 38.7946 14.744 40.203 11.4011 41.4859C7.68184 42.9145 4.38753 43.558 1.99976 43.8696C2.279 44.3067 5.54499 49.2643 11.0773 49.2522C13.4691 49.2481 15.3065 48.3173 16.2819 47.7143" fill="#1E1E1E"/>
<path d="M34.2873 24.4558C31.94 27.313 29.621 29.5875 27.6217 31.3439C25.9827 32.7806 23.1133 35.1401 19.1674 37.5359C17.0913 38.7946 14.744 40.203 11.4011 41.4859C7.68184 42.9145 4.38753 43.558 1.99976 43.8696C2.279 44.3067 5.54499 49.2643 11.0773 49.2522C13.4691 49.2481 15.3065 48.3173 16.2819 47.7143" stroke="#DE7672" stroke-width="2.59012" stroke-linecap="round" stroke-linejoin="round"/>
<path d="M70.8652 4.25702C71.8527 4.89646 73.2813 5.85156 74.9528 7.08592C79.0322 10.101 84.6495 14.2492 89.2551 20.9795C90.7687 23.1892 92.7315 26.4957 94.3585 30.9393" fill="#1E1E1E"/>
<path d="M70.8652 4.25702C71.8527 4.89646 73.2813 5.85156 74.9528 7.08592C79.0322 10.101 84.6495 14.2492 89.2551 20.9795C90.7687 23.1892 92.7315 26.4957 94.3585 30.9393" stroke="#DE7672" stroke-width="2.59012" stroke-linecap="round" stroke-linejoin="round"/>
<path d="M89.4856 18.2643C93.4113 12.5296 101.25 10.1216 107.977 11.8618C114.703 13.6021 120.154 19.0211 122.793 25.4519C125.432 31.8786 125.46 39.1836 123.789 45.926" stroke="#DE7672" stroke-width="2.59012" stroke-linecap="round" stroke-linejoin="round"/>
<path d="M70.8652 4.25746C73.0345 3.34283 80.5256 0.505832 89.4615 3.20523C96.2323 5.25304 100.368 9.42962 102.064 11.3682" stroke="#DE7672" stroke-width="2.59012" stroke-linecap="round" stroke-linejoin="round"/>
<path d="M28.2936 101.29C29.1475 104.443 28.6416 106.491 28.1236 107.693C26.4238 111.631 20.5718 115.722 18.7344 116.426C18.3459 116.576 17.8967 116.77 17.8076 117.175C17.7064 117.628 18.1152 118.017 18.4956 118.284C19.5843 119.045 25.9099 122.57 33.5022 119.62C34.9996 119.037 37.3388 117.9 39.7427 115.593" fill="#1E1E1E"/>
<path d="M28.2936 101.29C29.1475 104.443 28.6416 106.491 28.1236 107.693C26.4238 111.631 20.5718 115.722 18.7344 116.426C18.3459 116.576 17.8967 116.77 17.8076 117.175C17.7064 117.628 18.1152 118.017 18.4956 118.284C19.5843 119.045 25.9099 122.57 33.5022 119.62C34.9996 119.037 37.3388 117.9 39.7427 115.593" stroke="#DE7672" stroke-width="2.59012" stroke-linecap="round" stroke-linejoin="round"/>
<path d="M54.5835 83.3089C54.8182 90.5369 60.0673 100.274 69.5698 101.29C79.2747 102.326 85.6893 93.4427 87.8261 87.9387C88.5789 85.9961 90.655 80.654 88.0973 76.2224C85.3655 71.4833 79.1087 70.856 73.977 70.3421C69.0315 69.8483 61.5323 69.0956 57.3072 74.0411C54.3892 77.4528 54.5349 81.8276 54.5835 83.3048V83.3089Z" stroke="#1E1E1E" stroke-width="2.84914" stroke-miterlimit="10"/>
<path d="M99.5499 86.4858C99.7685 93.1715 104.621 102.176 113.411 103.119C122.388 104.078 128.316 95.8628 130.296 90.7716C130.992 88.9747 132.914 84.0333 130.546 79.9376C128.017 75.5546 122.23 74.9759 117.487 74.5024C112.913 74.0451 105.977 73.349 102.071 77.9222C99.3759 81.0789 99.5054 85.1219 99.5499 86.4898V86.4858Z" stroke="#1E1E1E" stroke-width="2.59012" stroke-miterlimit="10"/>
<path d="M88.1255 84.8746C88.7892 84.5185 91.8852 82.9482 95.4142 84.1097C97.0412 84.648 98.1622 85.5666 98.8057 86.198" stroke="#1E1E1E" stroke-width="2.84914" stroke-linecap="round" stroke-linejoin="round"/>
<path d="M11.8059 84.9435C12.2066 83.2639 13.105 80.6698 15.3471 78.6786C18.69 75.7081 23.1215 75.7647 26.7922 75.9549C37.2094 76.4891 47.3108 78.3872 54.721 80.091" stroke="#1E1E1E" stroke-width="2.84914" stroke-linecap="round" stroke-linejoin="round"/>
<path d="M86.0533 18.6001C84.135 16.8315 79.2947 12.8775 72.4107 12.4566C65.0248 12.0034 59.6543 15.9897 55.672 18.7377C46.6754 24.9418 46.3556 30.8708 39.5161 38.5279C35.4367 43.097 28.6538 48.8803 17.1196 53.069C19.2605 53.8743 26.2134 56.1812 34.2832 53.4777C39.7751 51.6404 43.2637 48.3298 44.9108 46.5289" fill="#1E1E1E"/>
<path d="M86.0533 18.6001C84.135 16.8315 79.2947 12.8775 72.4107 12.4566C65.0248 12.0034 59.6543 15.9897 55.672 18.7377C46.6754 24.9418 46.3556 30.8708 39.5161 38.5279C35.4367 43.097 28.6538 48.8803 17.1196 53.069C19.2605 53.8743 26.2134 56.1812 34.2832 53.4777C39.7751 51.6404 43.2637 48.3299 44.9108 46.5289" stroke="#DE7672" stroke-width="2.59012" stroke-linecap="round" stroke-linejoin="round"/>
<path d="M84.5115 111.995C86.5714 113.593 89.627 115.378 93.4434 115.799C94.9812 115.969 97.1221 116.175 98.6034 114.872C99.7163 113.893 99.9632 112.488 100.064 111.877C100.979 106.292 97.798 81.3624 97.624 80.0026" stroke="#1E1E1E" stroke-width="2.84914" stroke-linecap="round" stroke-linejoin="round"/>
<path d="M16.282 47.7153C12.8501 53.0736 12.7165 56.7403 13.2912 59.1442C13.6231 60.5405 14.3677 63.167 15.2379 64.8587C16.278 66.8822 17.7025 69.1203 16.9053 71.249C16.2294 73.0581 14.2301 73.9444 12.4292 74.6364C11.3122 75.0654 10.1993 75.4944 9.08228 75.9234C9.70552 76.5588 11.2798 77.9793 13.7121 78.4042C18.083 79.1651 21.2882 76.0084 21.612 75.6806" fill="#1E1E1E"/>
<path d="M16.282 47.7153C12.8501 53.0736 12.7165 56.7403 13.2912 59.1442C13.6231 60.5405 14.3677 63.167 15.2379 64.8587C16.278 66.8822 17.7025 69.1203 16.9053 71.249C16.2294 73.0581 14.2301 73.9444 12.4292 74.6364C11.3122 75.0654 10.1993 75.4944 9.08228 75.9234C9.70552 76.5588 11.2798 77.9793 13.7121 78.4042C18.083 79.1651 21.2882 76.0084 21.612 75.6806" stroke="#DE7672" stroke-width="2.59012" stroke-linecap="round" stroke-linejoin="round"/>
<path d="M69.7153 122.699C72.2124 124.366 74.9927 125.609 77.8985 126.362" stroke="#1E1E1E" stroke-width="1.81309" stroke-linecap="round" stroke-linejoin="round"/>
<path d="M101.481 125.569C96.143 127.252 89.692 127.232 84.6777 124.229C82.986 123.254 81.5371 122.193 80.0195 121.348C77.1744 119.793 73.783 118.167 70.5777 118.037C68.024 117.855 64.8875 119.502 65.0575 122.351C65.3893 125.204 68.6472 127.6 70.9864 129.223C73.7668 131.052 76.9033 132.461 80.1571 133.181C87.1747 134.148 94.1923 131.15 99.4535 126.593C99.7409 126.334 100.182 126.358 100.437 126.649C100.668 126.916 100.664 127.309 100.437 127.564C99.1783 128.976 97.774 130.235 96.2523 131.352C93.1846 133.634 89.6232 135.265 85.8351 135.99C85.5559 136.042 84.273 136.216 84.0261 136.257C83.7873 136.273 83.1762 136.301 82.9293 136.314C81.8892 136.403 80.8491 136.301 79.809 136.261C79.6633 136.253 79.3274 136.188 79.1777 136.168C73.269 135.027 65.79 131.243 62.5685 125.981C59.772 121.36 62.439 116.22 67.4655 114.832C70.5251 113.97 73.8922 114.799 76.5916 115.973C78.344 116.71 80.0843 117.568 81.6909 118.616C84.7869 120.615 87.2476 122.942 90.7806 123.861C94.0547 124.828 97.6526 124.743 101.194 124.221C102.027 124.1 102.323 125.306 101.497 125.569H101.481Z" fill="#1E1E1E"/>
<path d="M94.5442 31.6846C101.752 35.3877 106.766 39.7181 109.895 42.8505C114.411 47.3751 121.295 54.2713 123.639 64.7168C124.735 69.6016 124.569 74.0696 125.427 74.1141C126.314 74.1627 127.451 69.4276 127.835 65.6517C128.293 61.1594 129.025 54.0002 125.067 46.1772C121.554 39.2324 116.216 35.4646 113.574 33.8539" fill="#1E1E1E"/>
<path d="M94.5442 31.6846C101.752 35.3877 106.766 39.7181 109.895 42.8505C114.411 47.3751 121.295 54.2713 123.639 64.7168C124.735 69.6016 124.569 74.0696 125.427 74.1141C126.314 74.1627 127.451 69.4276 127.835 65.6517C128.293 61.1594 129.025 54.0002 125.067 46.1772C121.554 39.2324 116.216 35.4646 113.574 33.8539" stroke="#DE7672" stroke-width="2.59012" stroke-linecap="round" stroke-linejoin="round"/>
<path d="M37.4685 106.474C37.347 106.474 37.2256 106.458 37.1042 106.426C34.417 105.714 25.2787 102.695 20.4222 93.6938C19.9244 92.9047 15.246 85.0979 18.3056 75.1785C18.5525 74.3812 18.8884 73.4585 19.5116 72.641C20.4991 71.3459 22.0856 70.6903 24.2346 70.6903C25.2018 70.6903 26.08 70.8239 26.6021 70.9048L26.768 70.9291C31.5152 71.6373 34.6841 75.0045 36.1532 76.9511C36.311 77.1616 36.4081 77.4125 36.4324 77.6755L38.8809 104.928C38.9214 105.39 38.7352 105.839 38.3831 106.139C38.1241 106.357 37.8003 106.474 37.4685 106.474Z" fill="#DE7672"/>
<path d="M24.2345 72.1065C25.1977 72.1065 26.0799 72.2603 26.5575 72.3291C31.1105 73.005 34.0041 76.4571 35.0199 77.8007L37.4684 105.054C35.6715 104.576 26.4604 101.946 21.6444 92.9732C21.6444 92.9732 16.6422 85.3728 19.6572 75.5951C19.8839 74.8545 20.1631 74.1139 20.6326 73.4987C21.4825 72.3817 22.9354 72.1065 24.2304 72.1065M24.2345 69.2736C20.9806 69.2736 19.2566 70.6374 18.3865 71.7828C17.6297 72.7783 17.2371 73.8468 16.9538 74.7614C13.9185 84.5998 18.0222 92.4228 19.1595 94.3087H19.1514C24.1293 103.589 33.1138 106.83 36.744 107.794C36.9827 107.858 37.2256 107.887 37.4684 107.887C38.1281 107.887 38.7796 107.656 39.2936 107.219C40.0019 106.624 40.3701 105.721 40.2892 104.799L37.8407 77.5458C37.7922 77.0197 37.5979 76.5178 37.2822 76.0929C35.6836 73.9763 32.2234 70.3056 26.9743 69.5245L26.8165 69.5002C26.254 69.4152 25.311 69.2695 24.2345 69.2695V69.2736Z" fill="#1E1E1E"/>
<mask id="mask0_336_211" style="mask-type:luminance" maskUnits="userSpaceOnUse" x="62" y="74" width="24" height="25">
<path d="M80.2629 91.7597C85.4877 85.9914 86.9501 78.8035 83.5292 75.7049C80.1084 72.6063 73.0997 74.7705 67.8749 80.5387C62.6501 86.307 61.1877 93.4949 64.6085 96.5935C68.0294 99.6921 75.0381 97.5279 80.2629 91.7597Z" fill="white"/>
</mask>
<g mask="url(#mask0_336_211)">
<path d="M62.4832 95.6842C68.056 87.7115 74.2075 80.1677 80.873 73.1299L62.4832 95.6842Z" fill="#1E1E1E"/>
<path d="M62.4832 95.6842C68.056 87.7115 74.2075 80.1677 80.873 73.1299" stroke="#1E1E1E" stroke-width="6.40651" stroke-miterlimit="10"/>
<path d="M68.7883 99.7879C74.3611 91.8152 80.5127 84.2714 87.1782 77.2336L68.7883 99.7879Z" fill="#1E1E1E"/>
<path d="M68.7883 99.7879C74.3611 91.8152 80.5127 84.2714 87.1782 77.2336" stroke="#DE7672" stroke-width="6.40651" stroke-miterlimit="10"/>
</g>
<mask id="mask1_336_211" style="mask-type:luminance" maskUnits="userSpaceOnUse" x="106" y="76" width="22" height="24">
<path d="M123.914 93.8433C128.48 88.3437 129.219 81.4259 125.564 78.3919C121.91 75.358 115.246 77.3569 110.68 82.8565C106.114 88.3561 105.376 95.2739 109.03 98.3079C112.684 101.342 119.348 99.343 123.914 93.8433Z" fill="white"/>
</mask>
<g mask="url(#mask1_336_211)">
<path d="M106.252 97.263C111.291 89.9499 118.171 82.4264 124.217 75.9875L106.252 97.263Z" fill="#1E1E1E"/>
<path d="M106.252 97.263C111.291 89.9499 118.171 82.4264 124.217 75.9875" stroke="#1E1E1E" stroke-width="6.0706" stroke-miterlimit="10"/>
<path d="M112.295 100.95C117.334 93.6369 122.906 86.7245 128.953 80.2856L112.295 100.95Z" fill="#1E1E1E"/>
<path d="M112.295 100.95C117.334 93.6369 122.906 86.7245 128.953 80.2856" stroke="#DE7672" stroke-width="6.0706" stroke-miterlimit="10"/>
</g>
<path d="M37.4683 105.058C35.6714 104.58 26.4603 101.95 21.6443 92.9772C21.6443 92.9772 16.6421 85.3768 19.6572 75.5991C19.8838 74.8585 20.1631 74.1179 20.6325 73.5027C22.1178 71.552 25.4283 72.1672 26.5534 72.3331C31.1063 73.009 34 76.4611 35.0158 77.8047" fill="#DE7672"/>
<path d="M37.4683 105.058C35.6714 104.58 26.4603 101.95 21.6443 92.9772C21.6443 92.9772 16.6421 85.3768 19.6572 75.5991C19.8838 74.8585 20.1631 74.1179 20.6325 73.5027C22.1178 71.552 25.4283 72.1672 26.5534 72.3331C31.1063 73.009 34 76.4611 35.0158 77.8047" stroke="#DE7672" stroke-width="0.259012" stroke-linecap="round" stroke-linejoin="round"/>
<path d="M32.7172 89.0072C32.2114 87.0646 31.4384 85.1908 30.4306 83.4546C29.4715 81.8075 28.0672 80.1482 26.1691 79.9903C25.5944 79.9418 24.9792 80.0551 24.5422 80.4315C23.7854 81.0831 23.8015 82.2446 23.9634 83.232" stroke="#1E1E1E" stroke-width="2.33111" stroke-linecap="round" stroke-linejoin="round"/>
<path d="M34.9714 103.799L42.7417 115.597C42.7417 115.597 46.6674 91.1199 45.8458 91.6784C45.0202 92.2329 34.1943 76.6436 34.1943 76.6436L34.9754 103.799H34.9714Z" fill="#DE7672" stroke="#DE7672" stroke-width="2.26636" stroke-linecap="round" stroke-linejoin="round"/>
<path d="M34.5667 75.5224C35.8212 76.3601 35.8739 78.1529 35.7929 79.6625C35.6351 82.5481 35.4813 85.4377 35.3235 88.3232C35.4934 89.6102 35.8617 91.1036 36.744 91.3464C38.5449 91.8482 41.6733 86.9027 43.284 82.9002C45.7568 76.7527 46.202 68.9661 44.1015 68.1891C43.543 67.9827 42.5232 68.1648 40.528 70.3947" fill="#1E1E1E"/>
<path d="M34.5667 75.5224C35.8212 76.3601 35.8739 78.1529 35.7929 79.6625C35.6351 82.5481 35.4813 85.4377 35.3235 88.3232C35.4934 89.6102 35.8617 91.1036 36.744 91.3464C38.5449 91.8482 41.6733 86.9027 43.284 82.9002C45.7568 76.7527 46.202 68.9661 44.1015 68.1891C43.543 67.9827 42.5232 68.1648 40.528 70.3947" stroke="#DE7672" stroke-width="0.259012" stroke-linecap="round" stroke-linejoin="round"/>
<path d="M51.0705 90.0671C50.9409 90.0671 50.7953 90.055 50.6698 90.0348C48.4156 89.6624 48.1768 86.8659 48.023 85.0164C47.853 83.0009 47.8652 80.6536 48.0594 78.5735L48.0716 78.4561C48.3265 75.7972 47.9016 75.2346 47.7923 75.1415C47.6952 75.0849 47.4524 74.9513 47.1569 74.7894C46.6834 74.5304 45.9347 74.1217 44.7287 73.4458C41.3332 71.5518 39.0669 70.2284 37.8001 69.4068C36.8248 68.7715 35.0117 67.5938 35.8778 65.6269C36.2703 64.7365 37.1364 64.1821 38.1401 64.1821C38.5165 64.1821 38.8483 64.2549 39.2287 64.344C39.6294 64.433 40.1312 64.5463 40.7869 64.603C41.0297 64.6232 41.2482 64.6354 41.4627 64.6354C42.2843 64.6354 43.0249 64.4775 44.3766 64.1942C44.7449 64.1173 45.1455 64.0323 45.5948 63.9433C48.197 63.4172 49.5042 63.2674 50.2853 63.1744C50.4553 63.1541 50.6415 63.1339 50.7426 63.1177C50.7507 63.1137 50.7588 63.1096 50.7669 63.1015C51.3254 62.7494 51.5197 62.3569 52.3696 60.3171C52.6448 59.6534 52.9564 58.9047 53.3611 57.9982C56.7485 50.3613 58.0031 48.6049 60.0671 48.6049C60.2856 48.6049 60.5001 48.6332 60.7106 48.6859C63.1307 49.3051 63.1186 52.393 63.1105 54.6472C63.1024 57.128 62.8555 59.7586 62.7827 60.5033C62.6855 61.4705 62.5763 62.284 62.4913 62.9356C62.2606 64.6556 62.2525 64.9794 62.4184 65.2343C62.4306 65.2505 62.4387 65.2667 62.4508 65.2788C62.6248 65.4367 63.5435 65.8373 64.6039 66.3027C65.2473 66.586 66.0325 66.93 66.9997 67.3712C71.2856 69.3138 73.0622 70.1191 72.8113 72.3086C72.6697 73.551 71.8076 74.405 70.2455 74.8461C69.5413 75.0444 68.5497 75.2346 67.0483 75.5179C66.4048 75.6393 65.6642 75.781 64.8183 75.9469C62.4953 76.4002 60.0914 76.8737 59.5814 77.1408C58.1407 77.9988 57.392 79.4395 55.8339 82.6246C54.9759 84.3769 54.4538 85.8339 54.0693 86.8983C53.5068 88.4645 52.924 90.0833 51.0705 90.0833V90.0671Z" fill="#DE7672"/>
<path d="M60.0672 50.928C60.0874 50.928 60.1117 50.928 60.1319 50.9361C61.1315 51.191 60.7471 57.4276 60.4597 60.2645C60.0874 63.9636 59.5694 65.1413 60.4678 66.5092C61.0911 67.4521 61.8114 67.5736 66.0285 69.4838C70.112 71.3373 70.5207 71.7097 70.4843 72.0294C70.4195 72.5919 68.995 72.7376 64.3611 73.6442C60.8806 74.3241 59.1282 74.6762 58.3917 75.1132C56.2831 76.3678 55.3078 78.363 53.7294 81.5845C51.9366 85.2471 51.4995 87.732 51.0584 87.732C51.0503 87.732 51.0462 87.732 51.0381 87.732C50.4432 87.6349 49.9697 83.0374 50.3663 78.788C50.4716 77.6791 50.8155 74.6316 49.2615 73.3366C49.2372 73.3163 49.2089 73.2921 49.1522 73.2475C48.9256 73.0816 48.5492 72.9076 45.8498 71.4021C38.2696 67.1729 37.9378 66.6913 37.9985 66.5537C38.0147 66.5173 38.0551 66.5011 38.128 66.5011C38.4356 66.5011 39.2612 66.7965 40.5684 66.9139C40.884 66.9422 41.1714 66.9543 41.4547 66.9543C42.7902 66.9543 43.8789 66.6508 46.0441 66.2137C51.1676 65.1777 51.0584 65.6552 51.9973 65.0603C53.5918 64.0567 53.778 62.7656 55.4778 58.925C56.5381 56.5372 59.027 50.9199 60.055 50.9199M60.0672 46.2657C56.1901 46.2657 54.3689 49.9607 51.2283 57.0431C50.8155 57.9739 50.4837 58.7712 50.2166 59.4147C49.994 59.9448 49.7552 60.5236 49.5731 60.904C48.7192 61.0092 47.3917 61.1913 45.1254 61.6486C44.6721 61.7417 44.2633 61.8267 43.887 61.9036C42.604 62.1748 42.0132 62.2921 41.4547 62.2921C41.309 62.2921 41.1552 62.284 40.9852 62.2678C40.4834 62.2233 40.0827 62.1343 39.7306 62.0534C39.2774 61.9522 38.7634 61.8389 38.132 61.8389C36.2178 61.8389 34.4937 62.9518 33.7369 64.6758C32.9073 66.5658 33.3929 68.731 34.9713 70.192C35.3436 70.536 35.809 70.8841 36.5213 71.3495C37.8326 72.2034 40.1394 73.5511 43.5834 75.4734C44.6316 76.0562 45.3318 76.4447 45.8134 76.7078C45.8296 77.072 45.8053 77.5779 45.7405 78.2295L45.7284 78.3509C45.522 80.5606 45.5058 83.0617 45.6879 85.2066C45.781 86.2912 45.9145 87.2221 46.0926 87.9667C46.8818 91.2894 49.0551 92.1271 50.2773 92.3295C50.5282 92.3699 50.8034 92.3942 51.0584 92.3942C52.0054 92.3942 54.3446 92.0866 55.6437 89.2375C55.8501 88.7802 56.0282 88.2905 56.2508 87.6672C56.615 86.6555 57.1128 85.2673 57.9141 83.6283C59.1889 81.026 59.8203 79.7755 60.6297 79.2089C61.3298 78.9822 63.406 78.5775 65.2514 78.2173C66.0932 78.0514 66.8298 77.9138 67.4692 77.7924C69.0314 77.497 70.0634 77.3027 70.8647 77.0761C74.2197 76.1291 74.9644 73.8384 75.1142 72.5595C75.2518 71.3454 75.0575 69.0507 72.1962 67.3307C71.3827 66.8451 70.112 66.2178 67.9508 65.2343C66.9674 64.7892 66.1701 64.4371 65.5307 64.1578C65.2555 64.0364 64.9722 63.911 64.7172 63.7976C64.7415 63.6074 64.7658 63.4132 64.7901 63.231C64.8791 62.5633 64.9884 61.7296 65.0896 60.7219C65.1665 59.9489 65.4214 57.2252 65.4295 54.6391C65.4336 53.3198 65.3729 52.2594 65.2433 51.3974C64.701 47.7996 62.5237 46.7271 61.2732 46.4074C60.8766 46.3062 60.4678 46.2536 60.055 46.2536L60.0672 46.2657Z" fill="#1E1E1E"/>
</svg>
