<svg width="16" height="16" viewBox="0 0 16 16" fill="none" xmlns="http://www.w3.org/2000/svg">
<g clip-path="url(#clip0_253_603)">
<path d="M8 16C12.4183 16 16 12.4183 16 8C16 3.58172 12.4183 0 8 0C3.58172 0 0 3.58172 0 8C0 12.4183 3.58172 16 8 16Z" fill="#1E1E1E"/>
<path d="M4.59249 9.65505C4.61425 9.72705 4.63313 9.79969 4.64817 9.87361C4.66385 9.95201 4.66001 10.0157 4.65073 10.0947C4.73361 10.0471 4.81649 9.99969 4.89937 9.95201C4.83473 9.90593 4.78033 9.84833 4.71953 9.79745C4.70513 9.90913 4.69073 10.0205 4.67633 10.1322C4.74513 10.0973 4.81073 10.048 4.85809 9.98689C4.93809 9.88385 4.94993 9.74721 4.83601 9.65921C4.72305 9.57217 4.59281 9.61665 4.51313 9.72097C4.49777 9.74081 4.48177 9.75137 4.46129 9.76449C4.31793 9.85377 4.33041 10.041 4.46129 10.1325C4.55313 10.1968 4.66321 10.2307 4.77201 10.2544C4.89073 10.28 5.01297 10.1776 4.97521 10.0512C4.92881 9.89633 4.90289 9.73793 4.85617 9.58273C4.80561 9.41473 4.54161 9.48641 4.59249 9.65537V9.65505Z" fill="#1E1E1E"/>
<path d="M5.20723 11.87C5.38611 12.0828 5.80307 12.1212 6.04723 11.9465C6.40371 11.6911 6.28627 11.0572 6.04723 10.7247C5.97043 10.6179 5.88339 10.4969 5.76083 10.4947C5.40723 10.4876 4.87059 11.4697 5.20723 11.87Z" fill="#1E1E1E"/>
<path d="M5.30264 10.8257C5.27768 10.8718 4.90872 11.562 4.86392 12.0791C4.84728 12.2695 4.8556 12.4743 4.8556 12.4743C4.8668 12.6126 4.8812 12.7508 4.89848 12.889C5.10936 12.769 5.358 12.6014 5.60216 12.3722C5.77688 12.2081 5.91288 12.0465 6.01816 11.9022" fill="#1E1E1E"/>
<path d="M5.30264 10.8257C5.27768 10.8718 4.90872 11.562 4.86392 12.0791C4.84728 12.2695 4.8556 12.4743 4.8556 12.4743C4.8668 12.6126 4.8812 12.7508 4.89848 12.889C5.10936 12.769 5.358 12.6014 5.60216 12.3722C5.77688 12.2081 5.91288 12.0465 6.01816 11.9022" stroke="#D9D9D9" stroke-width="0.2" stroke-linecap="round" stroke-linejoin="round"/>
<path d="M8.96331 14.4614C8.74091 14.4614 8.50763 14.4189 8.26987 14.3353C7.82475 14.1789 7.31211 13.7766 6.78731 13.1718C6.44107 12.7731 6.12651 12.3286 5.87723 11.8864C5.38443 11.0115 5.15051 10.2195 5.05515 9.82493C4.75883 8.60125 4.39019 7.07869 5.25099 5.69469C5.41291 5.43453 6.29899 4.13053 7.86379 3.99933C7.94795 3.99229 8.03339 3.98877 8.11787 3.98877C8.87659 3.98877 9.60523 4.26333 10.284 4.80509C10.3176 4.83197 11.1124 5.47581 11.5204 6.63037C11.6622 7.03133 11.7403 7.25213 11.6779 7.55005C11.6667 7.60413 11.6472 7.67645 11.6248 7.76061C11.5883 7.89725 11.5124 8.18141 11.5208 8.25885L11.5214 8.26557C11.5246 8.29277 11.5339 8.37565 11.5409 8.48189C11.5422 8.50045 11.5428 8.51261 11.5432 8.52317C11.5438 8.53501 11.5441 8.54461 11.5457 8.56221C11.5492 8.60381 11.5544 8.64797 11.5678 8.75037C11.5832 8.86621 11.6078 8.95037 11.6078 8.95133C11.628 9.01629 11.6542 9.07165 11.6849 9.13533C11.7448 9.26109 11.8126 9.40349 11.8536 9.66173C11.9464 10.2499 11.7028 11.056 11.6769 11.1392C11.6142 11.3853 11.3825 12.0217 11.0187 12.7078C10.6011 13.4953 10.371 13.9289 9.87883 14.207C9.78539 14.2598 9.50059 14.4208 9.09931 14.455C9.05387 14.4589 9.00907 14.4608 8.96299 14.4608L8.96331 14.4614Z" fill="#D9D9D9"/>
<path d="M8.11733 4.18504C9.19189 4.18504 9.95829 4.79688 10.1612 4.95848C10.1612 4.95848 10.941 5.58088 11.3353 6.69577C11.4697 7.07561 11.5369 7.26568 11.4857 7.50984C11.4501 7.67944 11.3081 8.12009 11.3257 8.28009C11.3273 8.29417 11.3378 8.37929 11.3452 8.49449C11.3477 8.53609 11.3474 8.54345 11.3503 8.57833C11.3541 8.62697 11.3605 8.67881 11.3737 8.77641C11.3916 8.91113 11.4201 9.00713 11.4201 9.00713C11.4895 9.23081 11.6031 9.33161 11.6601 9.69289C11.7497 10.2615 11.4882 11.0865 11.4882 11.0865C11.4313 11.3143 11.2028 11.9428 10.8453 12.6167C10.4316 13.3969 10.2245 13.787 9.78261 14.0369C9.68309 14.0932 9.43445 14.2302 9.08309 14.2602C9.05557 14.2625 9.01525 14.2654 8.96341 14.2654C8.82581 14.2654 8.60789 14.2462 8.33493 14.1505C8.18325 14.097 7.68149 13.9028 6.93525 13.0433C6.44949 12.4836 6.15733 11.9844 6.04789 11.7902C5.52821 10.8676 5.31381 10.0606 5.24565 9.77897C4.96085 8.60201 4.60021 7.11273 5.41749 5.79881C5.53333 5.61225 6.36501 4.32232 7.88021 4.19528C7.96085 4.18856 8.04021 4.18536 8.11765 4.18536M8.11733 3.79272C8.02773 3.79272 7.93653 3.79656 7.84693 3.80392C7.12437 3.86472 6.45749 4.15912 5.86485 4.67976C5.43925 5.05352 5.17685 5.44168 5.08373 5.59144C4.67797 6.2436 4.49557 6.98376 4.52565 7.85384C4.55061 8.57736 4.71701 9.26505 4.86389 9.87145C4.96181 10.2756 5.20117 11.0878 5.70581 11.9831C5.96117 12.4366 6.28373 12.8922 6.63861 13.3009C7.02005 13.7406 7.60149 14.3089 8.20437 14.521C8.46325 14.6122 8.71861 14.6583 8.96309 14.6583C9.01461 14.6583 9.06485 14.6561 9.11605 14.6519C9.55989 14.6142 9.87285 14.4375 9.97557 14.3793C10.5177 14.073 10.7573 13.6212 11.1922 12.801C11.5593 12.1089 11.7961 11.4609 11.8649 11.1988C11.8757 11.1649 11.8885 11.1191 11.9068 11.051C11.9397 10.9278 11.9689 10.8026 11.9929 10.6788C12.0735 10.2657 12.0921 9.91369 12.0476 9.63241C12.0025 9.34569 11.9247 9.18281 11.8623 9.05193C11.8345 8.99401 11.8127 8.94761 11.7961 8.89513C11.7925 8.88265 11.7746 8.81513 11.7628 8.72553C11.75 8.62825 11.7449 8.58473 11.7417 8.54729C11.7404 8.53225 11.7401 8.52392 11.7394 8.51368C11.7388 8.50248 11.7381 8.48969 11.7369 8.47017C11.7301 8.36169 11.7205 8.27753 11.7167 8.24617C11.7196 8.16649 11.7833 7.92776 11.8143 7.81192C11.8373 7.7252 11.8575 7.65032 11.87 7.59112C11.9436 7.23944 11.8489 6.97128 11.7055 6.56584C11.2796 5.36136 10.4421 4.68136 10.4066 4.65288C9.51637 3.94248 8.67061 3.79336 8.11765 3.79336L8.11733 3.79272Z" fill="#1E1E1E"/>
<path d="M5.78232 4.19496C6.054 3.78696 6.4076 3.122 6.7804 3.17512C6.90137 3.1924 7.01081 3.2836 7.44889 3.41672C7.54937 3.44712 7.65528 3.47624 7.78137 3.44872C7.90393 3.42184 7.94521 3.3636 8.07289 3.30728C8.21625 3.24424 8.33881 3.24072 8.48025 3.23688C9.11225 3.21896 9.73368 3.5652 9.73368 3.5652C11.2511 4.40712 12.9958 4.78248 12.919 5.11144C12.845 5.4292 11.1455 5.38568 10.8249 4.9732C10.7929 4.93192 10.6985 4.7892 10.5244 4.73384C10.4098 4.69736 10.3375 4.73288 10.1458 4.72296C9.98201 4.71432 9.96696 4.70344 9.73368 4.682C9.24376 4.6372 9.28888 4.71816 8.98168 4.66696C8.82584 4.64072 8.66904 4.5956 8.52344 4.682C8.4812 4.70696 8.45784 4.73768 8.43864 4.75112C8.25688 4.87816 7.90617 5.3172 7.42809 5.58408C7.32057 5.64424 7.37592 5.60104 7.07736 5.74152C6.64248 5.94632 6.55768 6.02248 6.29464 6.10408C6.24344 6.12008 6.12216 6.09608 6.09208 6.15464C6.0716 6.19432 6.10904 6.23112 6.1004 6.28936C6.08792 6.37352 5.9916 6.41576 5.9228 6.458C5.6972 6.59656 5.59288 6.8404 5.5244 7.00136C5.4908 7.08008 5.47384 7.14696 5.44312 7.27784C5.38744 7.51272 5.38168 7.68872 5.32408 7.97512C5.24632 8.36232 5.078 8.73192 4.694 9.4068C4.25624 10.1761 4.03768 10.5607 3.878 10.537C3.44856 10.4737 3.58776 8.47976 2.97208 8.34344C2.70744 8.28488 2.54168 8.62216 2.38424 8.53928C1.9596 8.31656 3.286 5.9284 3.43416 5.85608C3.47928 5.834 3.52376 5.82184 3.52376 5.82184C3.58424 5.80648 3.6332 5.81352 3.83512 5.77032C4.39832 5.64936 4.78296 5.28584 5.14808 4.93224C5.3324 4.754 5.51736 4.59368 5.78232 4.1956V4.19496Z" fill="#1E1E1E" stroke="#1E1E1E" stroke-width="0.056" stroke-miterlimit="10"/>
<path d="M10.4389 11.1695C10.3832 11.2053 10.301 11.2536 10.1964 11.2994C9.72341 11.5058 9.28245 11.4431 9.09493 11.4136C8.45365 11.3138 8.02741 10.949 7.86133 10.7893C7.98517 11.3858 8.07381 11.8203 8.14933 12.1989C8.14933 12.1989 8.22293 12.5679 8.40981 13.0277C8.54389 13.3583 8.63637 13.4891 8.78197 13.5717C8.80981 13.5877 9.01845 13.7023 9.24021 13.6434C9.51509 13.5704 9.64917 13.2741 9.81781 12.8527C9.97589 12.4578 10.1852 11.8658 10.3855 11.2383" fill="#1E1E1E"/>
<path d="M10.4042 11.1104C9.60584 11.5498 8.58376 11.3133 7.94376 10.7066C7.85608 10.6237 7.72424 10.7072 7.74792 10.8205C7.91912 11.6387 8.02216 12.505 8.38344 13.2685C8.53608 13.5907 8.82152 13.8298 9.20104 13.776C9.61384 13.7175 9.78056 13.2755 9.91848 12.9386C10.1415 12.3927 10.3236 11.8327 10.4942 11.2685C10.5367 11.1283 10.3223 11.0717 10.2762 11.2083C10.0938 11.7485 9.90536 12.2893 9.69544 12.8192C9.61128 13.0314 9.52328 13.3143 9.3348 13.4608C9.17288 13.5866 8.92264 13.5459 8.77288 13.4176C8.58376 13.256 8.50056 12.9479 8.42248 12.7232C8.36104 12.5469 8.30664 12.3671 8.26632 12.1847C8.16136 11.7111 8.0724 11.2333 7.97448 10.7581C7.9092 10.7962 7.84392 10.8339 7.77864 10.872C8.48392 11.545 9.63528 11.8266 10.4737 11.2282C10.5441 11.1779 10.4833 11.0669 10.4046 11.1101L10.4042 11.1104Z" fill="#1E1E1E"/>
<path d="M10.0764 6.55006C10.0057 6.5635 9.94198 6.78494 10.0005 7.77758C9.87702 7.79742 9.70646 7.8387 9.5215 7.9315C9.3759 8.00446 9.13814 8.12382 9.14774 8.23166C9.15286 8.28766 9.2303 8.40734 9.94006 8.49214C9.80566 8.88222 9.5647 9.63454 9.70486 9.70494C9.85622 9.7811 10.3823 9.02366 10.6028 8.69566C10.6962 8.76894 10.8329 8.86462 11.0098 8.9523C11.3711 9.1315 11.8831 9.2691 11.949 9.15582C11.9868 9.09118 11.9023 8.90654 11.1666 8.31294C11.7522 7.87294 11.7967 7.72062 11.7673 7.65982C11.734 7.59102 11.5717 7.5891 11.2469 7.58558C11.0524 7.58334 10.8873 7.59358 10.7628 7.60478C10.6985 7.49342 10.6053 7.33342 10.4908 7.14206C10.1551 6.58174 10.1097 6.54398 10.0767 6.55038L10.0764 6.55006Z" fill="#1E1E1E" stroke="#1E1E1E" stroke-width="0.056" stroke-miterlimit="10"/>
<path d="M7.02065 7.00137C7.09137 6.98825 7.23089 7.17161 7.53617 8.11817C7.65841 8.09193 7.83217 8.06889 8.03825 8.08809C8.20049 8.10345 8.46513 8.12841 8.49553 8.23241C8.51121 8.28649 8.48241 8.42601 7.85137 8.76201C8.11793 9.07721 8.61489 9.69097 8.50993 9.80713C8.39633 9.93289 7.63185 9.41737 7.30737 9.19145C7.24657 9.29353 7.15409 9.43209 7.02097 9.57801C6.74929 9.87593 6.32177 10.1895 6.21905 10.1076C6.16049 10.0612 6.17233 9.85833 6.64337 9.03849C5.93809 8.84041 5.84145 8.71465 5.84689 8.64713C5.85297 8.57097 6.00369 8.51049 6.30513 8.38953C6.48561 8.31721 6.64337 8.26665 6.76337 8.23209C6.78289 8.10505 6.81169 7.92201 6.84913 7.70249C6.95889 7.05865 6.98769 7.00713 7.02097 7.00105L7.02065 7.00137Z" fill="#1E1E1E" stroke="#1E1E1E" stroke-width="0.056" stroke-miterlimit="10"/>
<path d="M8.53809 3.73984C8.57969 3.26368 9.01937 2.856 9.49745 2.85088C9.92625 2.8464 10.308 3.12192 10.604 3.43232C10.9 3.74272 11.1499 4.10304 11.4974 4.35424C11.9195 4.6592 12.445 4.77472 12.9541 4.8832C13.1954 4.93472 13.437 4.98592 13.6782 5.03744C13.5947 5.12384 13.3019 5.40608 12.8331 5.45696C12.4984 5.49344 12.2366 5.39424 12.117 5.33984" fill="#1E1E1E"/>
<path d="M8.53809 3.73984C8.57969 3.26368 9.01937 2.856 9.49745 2.85088C9.92625 2.8464 10.308 3.12192 10.604 3.43232C10.9 3.74272 11.1499 4.10304 11.4974 4.35424C11.9195 4.6592 12.445 4.77472 12.9541 4.8832C13.1954 4.93472 13.437 4.98592 13.6782 5.03744C13.5947 5.12384 13.3019 5.40608 12.8331 5.45696C12.4984 5.49344 12.2366 5.39424 12.117 5.33984" stroke="#D9D9D9" stroke-width="0.2" stroke-linecap="round" stroke-linejoin="round"/>
<path d="M7.24053 4.50232C7.11957 4.18328 6.94518 3.878 6.69142 3.65016C6.43734 3.42232 6.09717 3.27832 5.75701 3.30712C5.40213 3.3372 5.08822 3.5452 4.8159 3.77464C3.8335 4.60216 3.13301 5.80632 1.95605 6.32056C2.50805 6.49208 3.13877 6.38616 3.60469 6.04376" fill="#1E1E1E"/>
<path d="M7.24053 4.50232C7.11957 4.18328 6.94518 3.878 6.69142 3.65016C6.43734 3.42232 6.09717 3.27832 5.75701 3.30712C5.40213 3.3372 5.08822 3.5452 4.8159 3.77464C3.8335 4.60216 3.13301 5.80632 1.95605 6.32056C2.50805 6.49208 3.13877 6.38616 3.60469 6.04376" stroke="#D9D9D9" stroke-width="0.2" stroke-linecap="round" stroke-linejoin="round"/>
<path d="M7.31254 3.41669C6.69686 2.69829 5.77014 2.25605 4.82422 2.22949C5.39382 2.45701 5.93398 2.75845 6.42678 3.12389" fill="#1E1E1E"/>
<path d="M7.31254 3.41669C6.69686 2.69829 5.77014 2.25605 4.82422 2.22949C5.39382 2.45701 5.93398 2.75845 6.42678 3.12389" stroke="#D9D9D9" stroke-width="0.2" stroke-linecap="round" stroke-linejoin="round"/>
<path d="M7.64551 3.44861C7.83623 2.59901 8.02791 1.74589 8.33767 0.932129C8.22887 1.71965 8.23463 2.52285 8.35463 3.30877" fill="#1E1E1E"/>
<path d="M7.64551 3.44861C7.83623 2.59901 8.02791 1.74589 8.33767 0.932129C8.22887 1.71965 8.23463 2.52285 8.35463 3.30877" stroke="#D9D9D9" stroke-width="0.2" stroke-linecap="round" stroke-linejoin="round"/>
<path d="M8.59277 4.63989C8.85293 4.82709 9.14381 5.02485 9.46413 5.22581C9.78669 5.42805 10.2475 5.70165 10.8197 5.98933C11.3233 6.24277 11.9502 6.52597 12.6904 6.79125C12.2936 6.46901 11.8757 6.10133 11.4494 5.68405C11.0968 5.33845 10.779 4.99861 10.4936 4.67157" fill="#1E1E1E"/>
<path d="M8.59277 4.63989C8.85293 4.82709 9.14381 5.02485 9.46413 5.22581C9.78669 5.42805 10.2475 5.70165 10.8197 5.98933C11.3233 6.24277 11.9502 6.52597 12.6904 6.79125C12.2936 6.46901 11.8757 6.10133 11.4494 5.68405C11.0968 5.33845 10.779 4.99861 10.4936 4.67157" stroke="#D9D9D9" stroke-width="0.2" stroke-linecap="round" stroke-linejoin="round"/>
<path d="M3.06461 6.41602C3.01661 6.54114 2.93341 6.73762 2.80157 6.9629C2.58749 7.32866 2.42781 7.45794 2.20989 7.8029C2.11549 7.95202 1.98525 8.18146 1.86621 8.49026C2.02685 8.48002 2.19933 8.46178 2.38173 8.43298C2.70429 8.3821 2.99101 8.30786 3.23773 8.22818C3.34557 8.61378 3.45949 9.08834 3.51965 9.54786C3.54205 9.71874 3.54557 9.8045 3.55197 9.87874C3.57469 10.1447 3.52829 10.4109 3.52381 10.6778C3.52349 10.705 3.52669 10.7376 3.55101 10.7498C3.57341 10.7607 3.59933 10.7472 3.62013 10.7338C3.71869 10.6698 4.19197 10.1658 4.28061 10.0707" fill="#1E1E1E"/>
<path d="M3.06461 6.41602C3.01661 6.54114 2.93341 6.73762 2.80157 6.9629C2.58749 7.32866 2.42781 7.45794 2.20989 7.8029C2.11549 7.95202 1.98525 8.18146 1.86621 8.49026C2.02685 8.48002 2.19933 8.46178 2.38173 8.43298C2.70429 8.3821 2.99101 8.30786 3.23773 8.22818C3.34557 8.61378 3.45949 9.08834 3.51965 9.54786C3.54205 9.71874 3.54557 9.8045 3.55197 9.87874C3.57469 10.1447 3.52829 10.4109 3.52381 10.6778C3.52349 10.705 3.52669 10.7376 3.55101 10.7498C3.57341 10.7607 3.59933 10.7472 3.62013 10.7338C3.71869 10.6698 4.19197 10.1658 4.28061 10.0707" stroke="#D9D9D9" stroke-width="0.2" stroke-linecap="round" stroke-linejoin="round"/>
<path d="M10.0764 6.55006C10.0057 6.5635 9.94198 6.78494 10.0005 7.77758C9.87702 7.79742 9.70646 7.8387 9.5215 7.9315C9.3759 8.00446 9.13814 8.12382 9.14774 8.23166C9.15286 8.28766 9.2303 8.40734 9.94006 8.49214C9.80566 8.88222 9.5647 9.63454 9.70486 9.70494C9.85622 9.7811 10.3823 9.02366 10.6028 8.69566C10.6962 8.76894 10.8329 8.86462 11.0098 8.9523C11.3711 9.1315 11.8831 9.2691 11.949 9.15582C11.9868 9.09118 11.9023 8.90654 11.1666 8.31294C11.7522 7.87294 11.7967 7.72062 11.7673 7.65982C11.734 7.59102 11.5717 7.5891 11.2469 7.58558C11.0524 7.58334 10.8873 7.59358 10.7628 7.60478C10.6985 7.49342 10.6053 7.33342 10.4908 7.14206C10.1551 6.58174 10.1097 6.54398 10.0767 6.55038L10.0764 6.55006Z" fill="#1E1E1E" stroke="#1E1E1E" stroke-width="0.056" stroke-miterlimit="10"/>
<path d="M6.0784 10.5477C6.02976 10.5477 5.98816 10.5343 5.95456 10.5074C5.84096 10.4169 5.88416 10.2367 5.93472 10.0895C6.00416 9.88725 6.14912 9.58933 6.3664 9.20341C5.55936 8.96341 5.4544 8.79861 5.4656 8.65621C5.4784 8.49525 5.65632 8.42389 6.08608 8.25141C6.24704 8.18677 6.41248 8.12885 6.57856 8.07893C6.60768 7.89109 6.63904 7.70037 6.67104 7.51093C6.7344 7.13877 6.7776 6.91701 6.81088 6.79221C6.83936 6.68501 6.87104 6.59445 6.96736 6.57653C6.97696 6.57461 6.98656 6.57397 6.99648 6.57397C7.12992 6.57397 7.28352 6.67733 7.68352 7.90005C7.79744 7.88117 7.91264 7.87189 8.02656 7.87189C8.09152 7.87189 8.1568 7.87509 8.22112 7.88117C8.54336 7.91157 8.8144 7.95189 8.86752 8.13525C8.9056 8.26709 8.84768 8.45365 8.15968 8.83605C8.98688 9.82901 8.95616 10.0274 8.86016 10.134C8.8352 10.1615 8.7888 10.1945 8.70848 10.1945H8.70784C8.63136 10.1945 8.4032 10.1922 7.36512 9.4783C7.27744 9.61334 7.17856 9.74101 7.07104 9.85909C6.80992 10.1452 6.3296 10.5481 6.07872 10.5481L6.0784 10.5477Z" fill="#1E1E1E"/>
<path d="M6.99622 6.68648C7.0839 6.68648 7.25222 6.92808 7.6071 8.02888C7.7159 8.00552 7.85894 7.98408 8.0263 7.98408C8.08486 7.98408 8.1463 7.98664 8.2103 7.99272C8.40518 8.01128 8.72326 8.04136 8.75942 8.16616C8.7783 8.23112 8.74342 8.3988 7.98534 8.80264C8.30566 9.1812 8.90246 9.9188 8.7767 10.0583C8.7623 10.0743 8.73894 10.0817 8.70822 10.0817C8.45094 10.0817 7.68006 9.56136 7.33158 9.31848C7.25862 9.44136 7.14758 9.60744 6.98758 9.7828C6.69702 10.1012 6.25798 10.435 6.07814 10.435C6.05606 10.435 6.03782 10.4298 6.02438 10.4193C5.9543 10.3633 5.96838 10.1198 6.53414 9.1348C5.68678 8.89704 5.57094 8.74568 5.57734 8.66472C5.5847 8.5732 5.76582 8.50024 6.12774 8.35496C6.3447 8.26792 6.53414 8.20712 6.67814 8.16584C6.7015 8.0132 6.73638 7.79336 6.7815 7.52936C6.91334 6.75592 6.9479 6.69384 6.9879 6.68648C6.99078 6.68584 6.99334 6.68584 6.99622 6.68584M6.99622 6.46216C6.97958 6.46216 6.96294 6.46376 6.94662 6.46664C6.77254 6.49896 6.72678 6.67112 6.70214 6.7636C6.6679 6.89192 6.62406 7.11656 6.56006 7.49224C6.53158 7.65864 6.50406 7.82632 6.47814 7.9924C6.3319 8.03848 6.1863 8.09032 6.04422 8.1476C5.85414 8.22376 5.71686 8.2788 5.61542 8.33192C5.5415 8.37064 5.36838 8.46088 5.35366 8.64776C5.33414 8.89288 5.5687 9.07048 6.2007 9.2708C6.01574 9.60648 5.8935 9.86408 5.82854 10.0538C5.79206 10.1607 5.69478 10.4446 5.88454 10.5959C5.92166 10.6254 5.98534 10.6606 6.07814 10.6606C6.41702 10.6606 6.96902 10.137 7.15334 9.93512C7.23974 9.84072 7.32038 9.74024 7.3943 9.63464C8.38598 10.3066 8.61766 10.3066 8.70822 10.3066C8.82982 10.3066 8.9031 10.2535 8.9431 10.209C9.12966 10.0023 8.9319 9.67912 8.73222 9.3924C8.62758 9.24232 8.49318 9.06664 8.33062 8.86792C8.85926 8.55976 9.0423 8.33768 8.97446 8.1044C8.89574 7.83272 8.5271 7.79784 8.23078 7.77C8.16294 7.7636 8.09382 7.7604 8.02566 7.7604C7.93734 7.7604 7.84838 7.76584 7.75974 7.7764C7.6199 7.35592 7.50246 7.05032 7.40198 6.84616C7.30406 6.6468 7.18694 6.46248 6.99558 6.46248L6.99622 6.46216Z" fill="#D9D9D9"/>
<path d="M9.62999 10.0247C9.60439 10.0247 9.58007 10.0189 9.55799 10.008C9.43927 9.9482 9.34679 9.78564 9.73495 8.63172C8.99959 8.53124 8.88535 8.38948 8.87383 8.26244C8.85815 8.08676 9.08087 7.96036 9.35095 7.825C9.50263 7.74884 9.66391 7.69284 9.83223 7.65796C9.80663 7.19012 9.80439 6.84196 9.82583 6.6218C9.84279 6.44548 9.87639 6.27876 10.0044 6.25444C10.0127 6.25284 10.021 6.2522 10.0293 6.2522C10.1225 6.2522 10.1641 6.28068 10.5769 6.97028C10.67 7.1258 10.7628 7.28324 10.8533 7.4394C10.9967 7.4282 11.142 7.42244 11.286 7.42244C11.3058 7.42244 11.3263 7.42244 11.3468 7.42276C11.7801 7.42756 11.9593 7.42948 12.0239 7.56324C12.0815 7.6826 12.0447 7.86148 11.4169 8.34756C12.2841 9.0586 12.2933 9.23236 12.2261 9.34788C12.1701 9.4442 12.0402 9.4442 11.9977 9.4442C11.7445 9.4442 11.3212 9.29988 11.0338 9.15748C10.8978 9.08996 10.7663 9.0106 10.6425 8.921C9.89111 10.025 9.70935 10.0247 9.63063 10.0247H9.62999Z" fill="#1E1E1E"/>
<path d="M10.0284 6.35234C10.0662 6.35234 10.1318 6.42338 10.4902 7.02178C10.6198 7.2381 10.7247 7.41858 10.7974 7.54466C10.925 7.53314 11.0908 7.52258 11.2847 7.52258C11.3042 7.52258 11.3244 7.52258 11.3446 7.5229C11.7116 7.52706 11.895 7.52898 11.9327 7.60674C11.966 7.67554 11.9158 7.8477 11.254 8.34498C12.0857 9.0157 12.181 9.22466 12.1385 9.29762C12.1196 9.32994 12.0687 9.34434 11.9964 9.34434C11.7826 9.34434 11.382 9.21922 11.077 9.06786C10.877 8.96866 10.7228 8.8605 10.6172 8.77794C10.3798 9.13122 9.82872 9.92482 9.62936 9.92482C9.61944 9.92482 9.61048 9.9229 9.60216 9.91874C9.44408 9.83906 9.7164 8.98914 9.86808 8.54818C9.06584 8.4525 8.97816 8.31714 8.9724 8.25378C8.96152 8.13186 9.23032 7.99714 9.3948 7.91458C9.60376 7.80962 9.7964 7.76322 9.93592 7.7405C9.87 6.61858 9.94168 6.36834 10.0217 6.35298C10.0236 6.35266 10.0258 6.35234 10.0281 6.35234M10.0284 6.15234C10.014 6.15234 9.99928 6.15362 9.98488 6.1565C9.76504 6.1981 9.73816 6.47778 9.72536 6.6125C9.70456 6.82722 9.7052 7.14434 9.72728 7.57954C9.58072 7.61634 9.4396 7.6685 9.30552 7.7357C9.05848 7.85954 8.75064 8.01378 8.77368 8.27138C8.79352 8.49474 9.03032 8.62466 9.60184 8.71362C9.52536 8.94818 9.46584 9.15202 9.42488 9.32162C9.33016 9.71298 9.30872 9.99458 9.51256 10.097C9.54872 10.1152 9.58808 10.1245 9.62968 10.1245C9.76568 10.1245 9.926 10.0365 10.2662 9.60802C10.3852 9.45794 10.5196 9.27426 10.6671 9.0605C10.7705 9.12962 10.878 9.19202 10.9887 9.24706C11.2866 9.3949 11.7286 9.54434 11.997 9.54434C12.1497 9.54434 12.2556 9.49538 12.3119 9.39842C12.423 9.2077 12.2447 8.99618 12.1775 8.91682C12.055 8.77154 11.8569 8.58498 11.5756 8.34978C12.0652 7.9581 12.2124 7.7245 12.1135 7.52002C12.0396 7.36674 11.8614 7.3469 11.7849 7.33858C11.6786 7.32674 11.5398 7.32514 11.3474 7.32322C11.3263 7.32322 11.3058 7.3229 11.2854 7.3229C11.1599 7.3229 11.0335 7.32706 10.9081 7.3357C10.8274 7.19714 10.7452 7.05762 10.6623 6.91938C10.4898 6.63106 10.3753 6.4493 10.3026 6.3469C10.2444 6.26498 10.1644 6.15266 10.029 6.15266L10.0284 6.15234Z" fill="#D9D9D9"/>
<path d="M8.99023 10.747C9.07791 10.7479 9.33103 10.7447 9.57871 10.657C9.76399 10.5914 9.96079 10.483 9.98511 10.4497C10.0155 10.4084 10.0043 10.3511 9.99055 10.3018C9.79887 9.60455 9.41071 8.98055 9.02735 8.36743" fill="#D9D9D9"/>
<path d="M8.99023 10.747C9.07791 10.7479 9.33103 10.7447 9.57871 10.657C9.76399 10.5914 9.96079 10.483 9.98511 10.4497C10.0155 10.4084 10.0043 10.3511 9.99055 10.3018C9.79887 9.60455 9.41071 8.98055 9.02735 8.36743" stroke="#1E1E1E" stroke-width="0.24" stroke-linecap="round" stroke-linejoin="round"/>
<path d="M5.67169 11.2232C5.38209 11.1938 4.95233 11.0936 4.54945 10.781C4.40321 10.6674 3.91521 10.2431 3.78177 9.54963C3.69345 9.08915 3.79777 8.65235 4.06081 8.38067C4.15041 8.28819 4.24097 8.24019 4.33697 8.23379C4.34401 8.23347 4.35073 8.23315 4.35777 8.23315C4.42657 8.23315 4.48897 8.25523 4.54113 8.27667C4.74817 8.36211 4.94017 8.49235 5.09601 8.65299L5.11809 8.67603L5.85985 11.2421L5.67137 11.2229L5.67169 11.2232Z" fill="#D9D9D9"/>
<path d="M4.3579 8.36147C4.4043 8.36147 4.44942 8.37747 4.4923 8.39539C4.6843 8.47475 4.85966 8.59379 5.0043 8.74259L5.68462 11.0962C5.47374 11.0747 5.04046 11.0002 4.62798 10.6802C4.50222 10.5826 4.0347 10.1867 3.90766 9.52595C3.83662 9.15699 3.89166 8.74003 4.1531 8.47027C4.20558 8.41619 4.27054 8.36691 4.34574 8.36211C4.3499 8.36211 4.35406 8.36179 4.35822 8.36179M4.3579 8.10547C4.3483 8.10547 4.3387 8.10547 4.32878 8.10643C4.20142 8.11475 4.08014 8.17715 3.9691 8.29171C3.67662 8.59315 3.55982 9.07251 3.65614 9.57395C3.7979 10.3112 4.31566 10.7618 4.47118 10.8824C4.89774 11.2133 5.35246 11.3199 5.6587 11.3509L6.03566 11.389L5.93038 11.0251L5.25006 8.67155L5.23246 8.61011L5.18798 8.56435C5.01998 8.39123 4.81326 8.25075 4.59022 8.15859C4.52654 8.13235 4.4491 8.10547 4.3579 8.10547Z" fill="#1E1E1E"/>
<path d="M9.74853 5.61271C9.79365 5.51031 9.85637 5.41591 9.93189 5.33335C9.97797 5.24535 10.0583 5.17527 10.1556 5.15479L10.1412 5.34199C10.0752 5.47991 9.98821 5.60759 9.88453 5.71959C9.85477 5.75191 9.81253 5.78551 9.77125 5.77015C9.71525 5.74935 9.72421 5.66711 9.74821 5.61239L9.74853 5.61271Z" stroke="#1E1E1E" stroke-width="0.38016" stroke-miterlimit="10"/>
<path d="M7.53504 3.81116C7.9296 3.98556 8.25728 4.26588 8.48512 4.6326C8.5408 4.7222 8.68544 4.6358 8.62592 4.55036C8.36224 4.17212 8.00256 3.88892 7.57152 3.72444C7.52192 3.70556 7.48608 3.78908 7.53504 3.81084V3.81116Z" fill="#D9D9D9"/>
<path d="M8.39629 12.9005C8.41005 12.9046 8.49645 12.6224 8.63469 12.4729C8.74061 12.3584 8.80461 12.3581 8.83565 12.3545C8.91469 12.3462 9.00397 12.3993 9.00909 12.4787L9.01165 12.4953C9.06157 12.5709 9.13517 12.6144 9.20397 12.6048C9.26189 12.5968 9.29773 12.5536 9.32685 12.5177C9.39437 12.4342 9.45389 12.2909 9.41613 12.1328C9.40653 12.0931 9.35821 11.9161 9.18477 11.84C9.03949 11.7763 8.90445 11.8259 8.87693 11.8365C8.74189 11.8896 8.67821 12 8.60621 12.1257C8.56685 12.1945 8.55469 12.2317 8.40845 12.8102C8.40845 12.8102 8.38637 12.8976 8.39597 12.9005H8.39629Z" fill="#D9D9D9"/>
<path d="M8.46532 12.9696C8.50756 12.9369 8.52484 12.8573 8.54564 12.8115C8.5946 12.7046 8.65028 12.5824 8.7434 12.5059C8.76292 12.4899 8.8042 12.4525 8.83588 12.4557C8.95172 12.4665 8.88964 12.5024 8.92388 12.5469C8.98564 12.6272 9.05604 12.6976 9.1626 12.7075C9.369 12.7264 9.49924 12.4857 9.52644 12.3126C9.55332 12.1408 9.4954 11.9574 9.37156 11.8342C9.22756 11.6912 9.0026 11.6569 8.81828 11.7357C8.6618 11.8025 8.55332 11.951 8.48068 12.1008C8.43492 12.1949 8.41028 12.2995 8.38244 12.4C8.34084 12.5491 8.22052 12.8016 8.30916 12.952C8.36324 13.0438 8.48964 12.9971 8.49796 12.9008C8.49316 12.9545 8.5066 12.8985 8.51428 12.8822C8.529 12.8512 8.53796 12.8173 8.54756 12.7843C8.577 12.6854 8.5994 12.5853 8.62404 12.4851C8.64516 12.3997 8.66308 12.3113 8.69348 12.2288C8.70052 12.2093 8.6906 12.2313 8.70884 12.1952C8.74372 12.1261 8.78788 12.0425 8.8474 11.9917C8.99844 11.8621 9.22244 11.9315 9.29668 12.1097C9.32772 12.1846 9.32964 12.2704 9.30404 12.3472C9.28132 12.4157 9.19044 12.5645 9.10788 12.4515C9.06852 12.3974 9.06756 12.3382 9.00164 12.2963C8.94852 12.2624 8.88484 12.2496 8.82276 12.2553C8.69572 12.2665 8.5962 12.3571 8.52196 12.4544C8.46564 12.5283 8.42276 12.6102 8.38436 12.6944C8.37092 12.7238 8.33028 12.8294 8.3274 12.8313C8.22852 12.9091 8.3674 13.0448 8.46532 12.9693V12.9696Z" fill="#D9D9D9"/>
<path d="M7.11884 7.92996C7.14764 7.92452 7.20396 7.99876 7.32748 8.3818C7.37708 8.37124 7.44748 8.36196 7.53068 8.36964C7.59628 8.37572 7.70348 8.38596 7.71564 8.4282C7.72204 8.44996 7.7102 8.5066 7.45484 8.6426C7.56268 8.76996 7.76396 9.0186 7.7214 9.06564C7.67564 9.11652 7.3662 8.90788 7.23468 8.81636C7.21004 8.85764 7.1726 8.91364 7.11884 8.97284C7.00876 9.09348 6.83596 9.2202 6.79436 9.18724C6.77068 9.16836 6.77548 9.08644 6.96588 8.7546C6.68044 8.6746 6.6414 8.6234 6.64364 8.5962C6.6462 8.56548 6.707 8.54084 6.82892 8.49188C6.90188 8.46244 6.96588 8.44228 7.0142 8.4282C7.0222 8.37668 7.03372 8.30276 7.04908 8.2138C7.09356 7.95332 7.10508 7.93252 7.11852 7.92996H7.11884Z" fill="#D9D9D9"/>
<path d="M10.3137 7.43164C10.2849 7.43676 10.26 7.52892 10.2878 7.94236C10.2376 7.95004 10.1684 7.96668 10.0936 8.00444C10.0347 8.0342 9.93835 8.08284 9.94251 8.12796C9.94475 8.15132 9.97675 8.20156 10.2664 8.23964C10.2132 8.40156 10.1182 8.71356 10.1755 8.74332C10.2372 8.77564 10.4484 8.46268 10.5368 8.327C10.5752 8.35772 10.6312 8.39836 10.7035 8.43548C10.8513 8.51164 11.0603 8.57084 11.0868 8.52412C11.1019 8.49756 11.0667 8.42012 10.7646 8.16988C11.0011 7.98908 11.0187 7.92604 11.0065 7.90044C10.9928 7.87164 10.9265 7.87004 10.7944 7.86748C10.715 7.86588 10.6478 7.8694 10.5972 7.87356C10.5707 7.82684 10.532 7.75996 10.4846 7.67996C10.3457 7.4454 10.3268 7.4294 10.3134 7.43196L10.3137 7.43164Z" fill="#D9D9D9"/>
<path d="M10.4389 11.1695C10.3832 11.2053 10.301 11.2536 10.1964 11.2994C9.72341 11.5058 9.28245 11.4431 9.09493 11.4136C8.45365 11.3138 8.02741 10.949 7.86133 10.7893C7.98517 11.3858 8.07381 11.8203 8.14933 12.1989C8.14933 12.1989 8.22293 12.5679 8.40981 13.0277C8.54389 13.3583 8.63637 13.4891 8.78197 13.5717C8.80981 13.5877 9.01845 13.7023 9.24021 13.6434C9.51509 13.5704 9.64917 13.2741 9.81781 12.8527C9.97589 12.4578 10.1852 11.8658 10.3855 11.2383" stroke="#1E1E1E" stroke-width="0.2" stroke-linecap="round" stroke-linejoin="round"/>
<path d="M5.00416 8.74268C4.85952 8.59356 4.68416 8.47452 4.49216 8.39548C4.44544 8.37628 4.39584 8.359 4.34528 8.3622C4.27008 8.367 4.20512 8.41628 4.15264 8.47036C3.8912 8.74012 3.83648 9.15708 3.9072 9.52604C4.03424 10.1868 4.50176 10.583 4.62752 10.6803C5.04 11.0003 5.47328 11.0748 5.68416 11.0963" fill="#D9D9D9"/>
<path d="M5.01538 8.73085C4.85954 8.57341 4.62882 8.37597 4.40098 8.34365C4.22818 8.31933 4.1005 8.47133 4.0173 8.60349C3.77634 8.98493 3.8189 9.49405 3.98626 9.89373C4.27074 10.574 4.94114 11.0812 5.68418 11.1187C5.70978 11.12 5.71618 11.0777 5.69026 11.0736C5.06946 10.9718 4.51714 10.6713 4.1805 10.1299C3.9693 9.79005 3.85282 9.36637 3.93154 8.96765C3.95202 8.86365 3.98626 8.76157 4.03714 8.66845C4.08802 8.57533 4.1917 8.40925 4.30722 8.39133C4.54498 8.35421 4.83586 8.60061 4.99234 8.75389C5.00738 8.76861 5.03042 8.74557 5.0157 8.73053L5.01538 8.73085Z" fill="#D9D9D9"/>
<path d="M4.87724 9.53586C4.89932 9.75538 4.94636 9.96594 4.9934 10.1813L5.10028 10.0411C5.03852 10.0418 4.95148 9.96946 4.8942 9.9445C4.82668 9.91506 4.75756 9.8917 4.68684 9.87122L4.77516 10.0882C4.88172 9.90194 4.96524 9.70546 5.02476 9.49938L4.71852 9.45778C4.69964 9.62834 4.65516 9.86546 4.75052 10.0175C4.7998 10.0959 4.94188 10.116 4.98572 10.0175C5.059 9.85138 5.01548 9.63826 5.03052 9.45778C5.04524 9.28082 4.7678 9.24882 4.72428 9.41618C4.6766 9.59954 4.61004 9.77202 4.52044 9.93906C4.47628 10.0213 4.5134 10.1314 4.60876 10.156C4.71628 10.1839 4.8174 10.2123 4.92044 10.2527C5.00652 10.2866 5.07244 10.2927 5.1566 10.2475C5.21388 10.2168 5.21932 10.1493 5.19628 10.0959C5.11756 9.91282 5.0734 9.70962 5.03692 9.51442C5.02028 9.42546 4.86828 9.44466 4.87756 9.53586H4.87724Z" fill="#1E1E1E"/>
<path d="M5.55094 7.44036C5.52694 7.71044 5.47734 8.0282 5.3791 8.37572C5.2239 8.92548 5.00022 9.36165 4.80566 9.67653C4.88726 9.36261 4.9647 9.03876 5.03702 8.705C5.21942 7.86628 5.34774 7.06628 5.43638 6.31396" fill="#1E1E1E"/>
<path d="M5.48507 7.44031C5.40667 8.22079 5.14875 8.96927 4.73403 9.63455L4.88539 9.69855C5.03707 9.12863 5.17211 8.55391 5.28059 7.97439C5.38107 7.43615 5.51931 6.86335 5.49659 6.31423C5.49371 6.24703 5.39707 6.23103 5.37787 6.29823C5.29979 6.57279 5.27195 6.85087 5.22971 7.13311C5.18747 7.41535 5.14267 7.68095 5.09211 7.95391C4.98683 8.52447 4.86651 9.09183 4.72539 9.65471C4.70267 9.74559 4.82779 9.79999 4.87675 9.71871C5.29531 9.02495 5.54683 8.24799 5.61627 7.44063C5.62363 7.35615 5.49307 7.35743 5.48475 7.44063L5.48507 7.44031Z" fill="#1E1E1E"/>
<path d="M8.62748 4.66504C8.16828 5.18696 7.59036 5.7668 6.87708 6.34248C5.94844 7.09192 5.05084 7.62376 4.2998 7.99976C4.84188 7.33032 5.38428 6.66088 5.92636 5.99112" fill="#1E1E1E"/>
<path d="M8.62748 4.66504C8.16828 5.18696 7.59036 5.7668 6.87708 6.34248C5.94844 7.09192 5.05084 7.62376 4.2998 7.99976C4.84188 7.33032 5.38428 6.66088 5.92636 5.99112" stroke="#D9D9D9" stroke-width="0.2" stroke-linecap="round" stroke-linejoin="round"/>
<path d="M7.75274 5.80533C7.70762 5.70293 7.6449 5.60853 7.56938 5.52597C7.5233 5.43797 7.44298 5.36789 7.3457 5.34741L7.3601 5.53461C7.42602 5.67253 7.51306 5.80021 7.61674 5.91221C7.6465 5.94453 7.68874 5.97813 7.73002 5.96277C7.78602 5.94197 7.77706 5.85973 7.75306 5.80501L7.75274 5.80533Z" stroke="#1E1E1E" stroke-width="0.4" stroke-miterlimit="10"/>
<path d="M5.31824 10.7115C5.38448 10.8885 5.45072 11.0655 5.51664 11.2421C5.57392 11.3951 5.61424 11.5679 5.72496 11.6911C5.78224 11.7547 5.89904 11.7051 5.89552 11.6203C5.88848 11.4549 5.79504 11.3016 5.72944 11.1522C5.65328 10.9794 5.57712 10.8069 5.50096 10.6341C5.45584 10.5317 5.27856 10.605 5.31824 10.7112V10.7115Z" fill="#1E1E1E"/>
<path d="M5.45228 8.59302C5.41772 8.69062 5.38124 8.79014 5.34188 8.89126C5.28204 9.04614 5.22028 9.19462 5.1582 9.33638C5.27116 9.83174 5.44012 10.3783 5.69324 10.9501C5.76076 11.1021 5.83052 11.2481 5.90156 11.3873C5.98316 11.449 6.06508 11.5108 6.14668 11.5725C5.91532 10.5793 5.68364 9.5863 5.45228 8.59302Z" fill="#D9D9D9" stroke="#D9D9D9" stroke-width="0.112" stroke-miterlimit="10"/>
</g>
<defs>
<clipPath id="clip0_253_603">
<rect width="16" height="16" fill="white"/>
</clipPath>
</defs>
</svg>
