<svg width="155" height="155" viewBox="0 0 155 155" fill="none" xmlns="http://www.w3.org/2000/svg">
<path d="M113.029 109.935C103.198 106.694 88.6217 103.093 70.7158 102.894C52.5694 102.691 37.7523 106.051 27.7959 109.124" stroke="#1E1E1E" stroke-width="1.0453" stroke-miterlimit="10"/>
<path d="M131.594 23.4416C117.143 8.99035 97.9355 1.03564 77.5 1.03564C57.0645 1.03564 37.8571 8.99558 23.4059 23.4416C8.95471 37.8928 1 57.1001 1 77.5356C1 97.9712 8.95993 117.179 23.4059 131.63C37.8571 146.081 57.0645 154.036 77.5 154.036C97.9355 154.036 117.143 146.076 131.594 131.63C146.045 117.179 154 97.9712 154 77.5356C154 57.1001 146.04 37.8928 131.594 23.4416Z" fill="#1E1E1E" stroke="#DE7672" stroke-width="1.0453" stroke-miterlimit="10"/>
<path d="M77.4266 132.487C47.1391 132.487 22.5015 107.849 22.5015 77.5617C22.5015 47.2742 47.1391 22.6366 77.4266 22.6366C107.714 22.6366 132.352 47.2742 132.352 77.5617C132.352 107.849 107.714 132.487 77.4266 132.487Z" fill="#DE7672"/>
<path d="M77.4265 23.9432C107.04 23.9432 131.045 47.9484 131.045 77.5617C131.045 107.175 107.04 131.18 77.4265 131.18C47.8133 131.18 23.8081 107.175 23.8081 77.5617C23.8081 47.9484 47.8133 23.9432 77.4265 23.9432ZM77.4265 21.33C62.4056 21.33 48.2837 27.1784 37.6635 37.7986C27.0433 48.4188 21.1948 62.5408 21.1948 77.5617C21.1948 92.5826 27.0433 106.705 37.6635 117.325C48.2837 127.945 62.4056 133.793 77.4265 133.793C92.4474 133.793 106.569 127.945 117.19 117.325C127.81 106.705 133.658 92.5826 133.658 77.5617C133.658 62.5408 127.81 48.4188 117.19 37.7986C106.569 27.1784 92.4474 21.33 77.4265 21.33Z" fill="#1E1E1E"/>
<path d="M77.4998 16.9554C110.96 16.9554 138.08 44.0756 138.08 77.5355C138.08 110.995 110.955 138.116 77.4998 138.116C44.0451 138.116 16.9197 110.995 16.9197 77.5355C16.9197 44.0756 44.0451 16.9554 77.4998 16.9554ZM77.4998 14.8648C60.7594 14.8648 45.0225 21.3822 33.1845 33.2202C21.3465 45.0582 14.8291 60.7951 14.8291 77.5355C14.8291 94.2759 21.3465 110.013 33.1845 121.851C45.0225 133.689 60.7594 140.206 77.4998 140.206C94.2402 140.206 109.977 133.689 121.815 121.851C133.653 110.013 140.171 94.2759 140.171 77.5355C140.171 60.7951 133.653 45.0582 121.815 33.2202C109.977 21.3822 94.2402 14.8648 77.4998 14.8648Z" fill="#DE7672"/>
<path d="M77.4995 130.825V24.2414" stroke="#1E1E1E" stroke-width="1.0453" stroke-miterlimit="10"/>
<path d="M130.789 77.5356H24.2051" stroke="#1E1E1E" stroke-width="1.0453" stroke-miterlimit="10"/>
<path d="M35.3169 45.2621C45.1165 48.4085 59.411 51.8214 76.8883 52.02C95.1183 52.2238 110.024 48.8527 120.075 45.7482" stroke="#1E1E1E" stroke-width="1.0453" stroke-miterlimit="10"/>
<path d="M120.075 109.344C110.275 106.198 95.9807 102.785 78.5033 102.586C60.2733 102.382 45.3674 105.753 35.3169 108.858" stroke="#1E1E1E" stroke-width="1.0453" stroke-miterlimit="10"/>
<path d="M77.4635 131.154C92.2655 131.154 104.265 107.148 104.265 77.5357C104.265 47.9231 92.2655 23.9173 77.4635 23.9173C62.6615 23.9173 50.6621 47.9231 50.6621 77.5357C50.6621 107.148 62.6615 131.154 77.4635 131.154Z" stroke="#1E1E1E" stroke-width="1.0453" stroke-miterlimit="10"/>
<path d="M77.5002 7.88204C115.967 7.88204 147.153 39.0684 147.153 77.5353C147.153 116.002 115.967 147.189 77.5002 147.189C39.0333 147.189 7.84687 116.002 7.84687 77.5353C7.84687 39.0684 39.0333 7.88204 77.5002 7.88204ZM77.5002 7.35939C58.7528 7.35939 41.1343 14.6608 27.88 27.9151C14.6256 41.1695 7.32422 58.7932 7.32422 77.5353C7.32422 96.2775 14.6256 113.901 27.88 127.156C41.1343 140.41 58.758 147.711 77.5002 147.711C96.2423 147.711 113.866 140.41 127.12 127.156C140.375 113.901 147.676 96.2775 147.676 77.5353C147.676 58.7932 140.375 41.1695 127.12 27.9151C113.866 14.6608 96.2423 7.35939 77.5002 7.35939Z" fill="#DE7672"/>
<path d="M51.5871 83.4362C51.4774 83.4362 51.3624 83.431 51.2526 83.4205C46.8258 82.9763 44.2335 73.8561 45.3519 62.6505C46.4443 51.6958 50.5523 43.438 54.9007 43.438C55.0105 43.438 55.1255 43.4432 55.2352 43.4536C57.4356 43.6731 59.2492 46.0198 60.331 50.0599C61.3711 53.9327 61.6586 58.9658 61.1307 64.2289C60.0384 75.1836 55.9303 83.4414 51.5819 83.4414L51.5871 83.4362Z" fill="#1E1E1E"/>
<path d="M54.9002 43.9554C54.9943 43.9554 55.0883 43.9554 55.1877 43.9711C59.2591 44.3788 61.6894 53.4206 60.618 64.1715C59.5727 74.6715 55.5692 82.9136 51.5866 82.9136C51.4925 82.9136 51.3985 82.9136 51.2991 82.898C47.2277 82.4903 44.7974 73.4485 45.8688 62.6976C46.9141 52.1976 50.9176 43.9554 54.9002 43.9554ZM54.9002 42.9101C52.5169 42.9101 50.2486 44.9955 48.3462 48.9363C46.5953 52.5582 45.3514 57.4084 44.834 62.5983C44.3009 67.9189 44.5936 73.0199 45.6493 76.9502C46.7939 81.215 48.7695 83.6976 51.1998 83.938C51.3305 83.9485 51.4612 83.9589 51.5866 83.9589C53.9699 83.9589 56.2382 81.8736 58.1406 77.9328C59.8915 74.3108 61.1354 69.4607 61.6528 64.2708C62.1859 58.9502 61.8932 53.8492 60.8375 49.9189C59.6929 45.654 57.7173 43.1715 55.287 42.9311C55.1563 42.9206 55.0256 42.9101 54.9002 42.9101Z" fill="#DE7672"/>
<path d="M103.063 83.431C98.7144 83.431 94.5907 75.1836 93.4722 64.2393C92.3276 53.0338 94.8938 43.9031 99.3206 43.4536C99.4356 43.4432 99.5506 43.438 99.6656 43.438C104.014 43.438 108.138 51.6853 109.256 62.6296C109.794 67.8874 109.523 72.9205 108.493 76.7986C107.416 80.8439 105.613 83.1906 103.413 83.4153C103.298 83.4258 103.183 83.431 103.068 83.431H103.063Z" fill="#1E1E1E"/>
<path d="M99.66 43.9607C103.637 43.9607 107.657 52.1924 108.733 62.6819C109.836 73.4276 107.427 82.4798 103.355 82.8979C103.256 82.9084 103.162 82.9136 103.062 82.9136C99.0851 82.9136 95.0659 74.6819 93.9893 64.1924C92.8865 53.4467 95.2959 44.3945 99.3673 43.9763C99.4666 43.9659 99.5607 43.9607 99.66 43.9607ZM99.66 42.9154C99.5294 42.9154 99.3935 42.9206 99.2628 42.9363C96.8325 43.1871 94.8673 45.675 93.728 49.9398C92.6827 53.8753 92.4057 58.9763 92.9492 64.2969C93.4823 69.4816 94.7419 74.3265 96.498 77.9432C98.4109 81.8788 100.679 83.9589 103.062 83.9589C103.193 83.9589 103.329 83.9537 103.46 83.938C105.89 83.6871 107.855 81.1993 108.995 76.9345C110.04 72.999 110.317 67.8979 109.773 62.5774C109.24 57.3927 107.986 52.5478 106.23 48.931C104.317 44.9955 102.049 42.9154 99.6653 42.9154H99.66Z" fill="#DE7672"/>
<path d="M41.1703 88.0776C49.4856 91.5845 58.2504 93.9103 67.219 94.9609C78.5239 96.2884 90.0588 95.5253 101.102 92.771C105.409 91.6943 109.642 90.3145 113.756 88.642C114.681 88.2657 114.273 86.7501 113.338 87.1316C105.111 90.4765 96.4037 92.6664 87.5657 93.5602C76.449 94.6838 65.165 93.8006 54.3619 90.9469C50.1389 89.8337 45.9839 88.4278 41.9595 86.7292C41.5675 86.5619 41.1232 86.6142 40.888 87.0114C40.6947 87.3406 40.7783 87.9208 41.1703 88.0828V88.0776Z" fill="#1E1E1E"/>
<path d="M40.8098 87.6125C42.5136 91.9452 44.7035 96.1003 47.3377 99.9365C51.6077 106.151 57.1844 111.67 64.1513 114.759C67.4805 116.238 70.9143 117.294 74.5467 117.67C79.099 118.14 83.7401 117.524 88.0363 115.966C95.045 113.421 101.003 108.91 105.655 103.109C109.094 98.818 111.869 94.0097 113.965 88.9295C114.08 88.6525 114.19 88.3703 114.305 88.0933C114.676 87.1525 113.16 86.7449 112.794 87.6752C111.153 91.8407 108.801 96.1839 106.089 99.9679C101.834 105.895 96.3568 110.698 89.6513 113.64C86.0502 115.219 82.1774 116.16 78.2366 116.248C74.2958 116.337 70.0885 115.517 66.2941 113.98C59.6722 111.294 54.2314 106.616 49.977 100.93C48.1478 98.4783 46.5223 95.8755 45.0955 93.1787C44.5572 92.1595 44.045 91.1247 43.5589 90.0794C43.2035 89.3058 42.8899 88.5846 42.6234 87.9365C42.5241 87.6909 42.4248 87.4452 42.3307 87.1996C41.9648 86.2693 40.4492 86.6769 40.8202 87.6177L40.8098 87.6125Z" fill="#1E1E1E"/>
<path d="M78.0801 117.57C77.8815 117.57 77.6881 117.57 77.4895 117.565C66.0696 117.325 56.9442 110.206 52.5226 105.989C47.2909 100.997 43.3292 94.6262 41.0661 87.5653L40.7212 86.4834L41.7665 86.9276C52.8884 91.6262 64.6376 94.0984 76.6898 94.2865C77.1707 94.2917 77.6567 94.297 78.1323 94.297C90.2473 94.297 102.096 91.9816 113.343 87.4085L114.441 86.9642L114.033 88.0775C107.526 105.722 93.0749 117.581 78.0749 117.581L78.0801 117.57Z" fill="#1E1E1E"/>
<path d="M41.562 87.4031C48.785 90.4554 61.0254 94.5634 76.684 94.8038C77.17 94.809 77.6561 94.8143 78.1369 94.8143C93.968 94.8143 106.365 90.8055 113.546 87.8892C107.076 105.434 92.6457 117.048 78.0795 117.048C77.8861 117.048 77.6927 117.048 77.4993 117.042C64.5795 116.765 54.7223 107.368 52.8826 105.612C45.8477 98.9014 42.8373 91.3752 41.5673 87.4083M39.8739 85.5529L40.569 87.7219C42.8582 94.8718 46.8669 101.316 52.1613 106.365C56.6404 110.635 65.8861 117.842 77.4784 118.088C77.677 118.088 77.8808 118.093 78.0795 118.093C93.2937 118.093 107.944 106.098 114.524 88.2498L115.344 86.0285L113.149 86.9223C101.964 91.4693 90.184 93.7742 78.1317 93.7742C77.6561 93.7742 77.1753 93.7742 76.6944 93.7637C64.7101 93.5808 53.0237 91.1139 41.9645 86.4467L39.8687 85.5634L39.8739 85.5529Z" fill="#DE7672"/>
<path d="M42.3047 80.6665C43.2664 83.4052 42.6758 86.4104 40.7577 88.4278C38.4319 90.8738 35.2438 90.7066 34.7891 90.6752" stroke="#1E1E1E" stroke-width="1.0453" stroke-linecap="round" stroke-linejoin="round"/>
</svg>
